<svg width="430" height="417" viewBox="0 0 430 417" fill="none" xmlns="http://www.w3.org/2000/svg">
<path d="M310.996 407.198C317.188 407.302 323.302 405.802 328.743 402.843C335.29 399.061 339.338 393.795 340.747 387.195C342.929 376.971 338.14 365.655 333.33 359.065L331.974 357.19C323.572 345.61 318.953 339.179 320.595 332.61C322.555 324.685 348.64 325.755 376.059 327.874L383.476 328.446C401.127 329.77 427.296 326.666 429.797 318.582C430.74 315.499 428.398 312.299 422.815 309.047C401.297 296.619 362.562 274.2 362.562 274.2L361.502 276.033C361.502 276.033 400.237 298.452 421.755 310.88C424.934 312.713 428.547 315.414 427.773 317.925C426.025 323.594 403.744 327.81 383.635 326.295L376.218 325.734C347.612 323.519 320.934 322.407 318.529 332.091C316.654 339.666 321.485 346.33 330.258 358.419L331.614 360.294C336.127 366.535 340.662 377.193 338.628 386.782C337.346 392.778 333.648 397.567 327.641 401.042C316.834 407.283 301.906 405.344 295.273 401.551C285.738 396.095 247.681 374.364 247.681 374.364L246.622 376.197C246.622 376.197 284.7 397.938 294.214 403.384C298.431 405.693 304.554 407.198 310.996 407.198Z" fill="#E0E0E0"/>
<path d="M347.103 284.742L407.356 249.948L355.717 220.134L295.463 254.917L347.103 284.742Z" fill="#E0E0E0"/>
<path d="M112.044 398.563L-36.3802 312.903C-49.4119 305.37 -49.4119 293.059 -36.3802 285.537L34.362 244.693C74.7392 221.384 140.798 221.384 181.176 244.693L279.56 301.492C330.235 330.756 317.5 364.299 271.232 391.104C224.964 417.909 162.719 427.815 112.044 398.563Z" fill="#E0E0E0"/>
<path d="M369.821 236.619C369.821 236.619 371.272 221.786 378.445 210.237C385.618 198.689 395.598 191.326 405.017 190.436C414.436 189.546 422.181 198.096 412.19 204.209C402.199 210.322 384.378 216.679 376.485 239.077L369.821 236.619Z" fill="#12B76A"/>
<g opacity="0.15">
<path d="M369.819 236.619C369.819 236.619 371.271 221.786 378.443 210.238C385.616 198.689 395.597 191.326 405.015 190.436C414.434 189.546 422.179 198.096 412.188 204.209C402.197 210.323 384.376 216.68 376.483 239.077L369.819 236.619Z" fill="black"/>
</g>
<path d="M372.523 232.753H372.427C372.366 232.729 372.31 232.694 372.262 232.648C372.215 232.603 372.176 232.549 372.15 232.489C372.123 232.429 372.109 232.364 372.107 232.298C372.106 232.233 372.117 232.167 372.141 232.106C381.677 207.452 400.472 196.931 409.065 194.812C409.129 194.796 409.195 194.793 409.26 194.803C409.326 194.812 409.388 194.835 409.445 194.869C409.501 194.903 409.551 194.947 409.59 195C409.629 195.053 409.658 195.114 409.674 195.178C409.69 195.242 409.693 195.308 409.683 195.373C409.674 195.439 409.651 195.501 409.617 195.558C409.583 195.615 409.538 195.664 409.485 195.703C409.432 195.742 409.372 195.771 409.308 195.787C400.896 197.906 382.492 208.204 373.074 232.466C373.029 232.571 372.95 232.656 372.85 232.709C372.749 232.761 372.633 232.776 372.523 232.753Z" fill="white"/>
<path d="M419.002 227.455C418.25 229.299 416.29 230.295 414.467 231.079C412.645 231.863 410.664 232.721 409.71 234.469C407.803 237.987 411.225 242.765 409.159 246.198C408.674 246.887 408.054 247.471 407.337 247.914C406.619 248.357 405.819 248.649 404.985 248.772C403.618 249.058 402.22 249.101 400.832 249.249C400.17 249.251 399.508 249.216 398.85 249.143C396.911 248.769 394.903 249.037 393.129 249.906C390.417 251.527 389.665 255.034 388.054 257.757C387.062 259.367 385.733 260.742 384.158 261.788C382.583 262.834 380.8 263.527 378.932 263.817C375.817 264.315 371.124 263.732 370.276 262.376C369.64 261.317 371.336 258.138 371.388 256.909C371.407 253.786 371.719 250.672 372.321 247.607C372.658 246.22 372.822 244.796 372.808 243.369C372.808 241.769 372.713 240.19 372.681 238.58C372.649 236.97 372.204 235.508 372.787 233.749C373.413 232.114 374.281 230.582 375.362 229.204C376.368 227.784 377.385 226.385 378.424 224.966C379.57 223.266 380.93 221.721 382.471 220.367C383.853 219.243 385.45 218.413 387.165 217.929C388.879 217.444 390.674 217.315 392.441 217.549C395.365 217.962 398.247 219.52 401.234 219.297C404.222 219.075 406.977 218.238 409.954 218.365C411.529 218.367 413.084 218.728 414.499 219.42C415.914 220.112 417.153 221.117 418.123 222.359C418.678 223.07 419.05 223.908 419.203 224.797C419.356 225.686 419.287 226.599 419.002 227.455Z" fill="#12B76A"/>
<path d="M372.636 254.568C372.578 254.555 372.524 254.531 372.475 254.497C372.427 254.463 372.386 254.419 372.355 254.368C372.325 254.318 372.305 254.262 372.296 254.203C372.288 254.144 372.292 254.085 372.308 254.027C378.824 226.693 407.324 222.02 414.02 222.327C414.139 222.333 414.251 222.385 414.332 222.472C414.413 222.559 414.457 222.675 414.454 222.794C414.452 222.852 414.437 222.909 414.412 222.962C414.388 223.015 414.352 223.063 414.309 223.102C414.266 223.142 414.215 223.172 414.16 223.192C414.105 223.212 414.047 223.22 413.988 223.217C407.43 222.921 379.555 227.455 373.177 254.239C373.144 254.352 373.071 254.448 372.971 254.509C372.87 254.57 372.751 254.591 372.636 254.568Z" fill="white"/>
<path d="M404.05 239.978C403.96 239.961 403.879 239.917 403.817 239.85C401.112 237.635 397.953 236.041 394.564 235.182C391.175 234.324 387.639 234.221 384.205 234.881C384.148 234.892 384.088 234.891 384.031 234.879C383.973 234.867 383.919 234.843 383.871 234.81C383.822 234.776 383.781 234.733 383.75 234.684C383.718 234.634 383.696 234.579 383.686 234.521C383.667 234.405 383.694 234.286 383.762 234.189C383.829 234.092 383.931 234.025 384.046 234.002C387.618 233.316 391.298 233.428 394.822 234.329C398.345 235.23 401.627 236.898 404.431 239.215C404.473 239.255 404.506 239.304 404.529 239.358C404.552 239.411 404.564 239.469 404.564 239.527C404.564 239.586 404.552 239.643 404.529 239.697C404.506 239.751 404.473 239.799 404.431 239.84C404.382 239.89 404.322 239.929 404.256 239.952C404.19 239.976 404.119 239.985 404.05 239.978Z" fill="white"/>
<path d="M348.712 125.785L357.326 100.94L373.716 91.4792L373.705 111.355V265.405L348.712 279.835V125.785Z" fill="#12B76A"/>
<g opacity="0.5">
<path d="M348.712 125.786L357.326 100.941L373.716 91.4798L373.706 111.356V265.406L348.712 279.836V125.786Z" fill="black"/>
</g>
<path d="M309.978 73.6064L301.375 98.4515L348.713 125.786L357.316 100.941L309.978 73.6064Z" fill="#12B76A"/>
<path opacity="0.2" d="M309.978 73.6064L301.375 98.4515L348.713 125.786L357.316 100.941L309.978 73.6064Z" fill="black"/>
<path d="M309.975 73.6059L326.365 64.1447L373.703 91.4795L357.313 100.941L309.975 73.6059Z" fill="#12B76A"/>
<path opacity="0.1" d="M309.975 73.6059L326.365 64.1447L373.703 91.4795L357.313 100.941L309.975 73.6059Z" fill="black"/>
<path d="M348.712 125.786C348.489 138.627 348.394 151.457 348.309 164.298L348.182 202.811L348.309 241.323L348.426 260.574L348.68 279.836L348.945 260.574L349.093 241.323L349.21 202.811L349.082 164.298C349.029 151.457 348.934 138.627 348.712 125.786Z" fill="white"/>
<path d="M301.374 98.4503C305.008 100.802 308.706 103.059 312.403 105.295C316.101 107.53 319.82 109.692 323.581 111.885C327.342 114.078 331.093 116.186 334.886 118.242L340.575 121.357C342.493 122.363 344.39 123.401 346.328 124.376C344.506 123.189 342.663 122.066 340.83 120.901L335.288 117.532C331.591 115.296 327.872 113.135 324.111 110.942C320.35 108.749 316.599 106.64 312.817 104.585C309.034 102.529 305.231 100.421 301.374 98.4503Z" fill="white"/>
<path d="M310.282 73.7642C313.916 76.1163 317.613 78.3624 321.311 80.5979C325.009 82.8335 328.727 84.9948 332.489 87.1986C336.25 89.4023 340 91.4365 343.783 93.5555L349.483 96.6916C351.4 97.6981 353.297 98.7364 355.225 99.7111C353.413 98.5245 351.57 97.4014 349.737 96.2466L344.196 92.8668C340.488 90.6313 336.779 88.4805 333.018 86.2768C329.257 84.0731 325.507 82.0388 321.714 79.9199C317.921 77.8009 314.096 75.7349 310.282 73.7642Z" fill="white"/>
<path d="M348.713 125.785L301.375 98.4503L301.364 252.511L348.713 279.835V125.785Z" fill="#12B76A"/>
<path opacity="0.3" d="M348.713 125.785L301.375 98.4503L301.364 252.511L348.713 279.835V125.785Z" fill="black"/>
<path d="M344.475 128.233L305.613 105.793L305.603 250.064L344.475 272.504V128.233Z" fill="#455A64"/>
<path d="M309.978 113.358V172.997L340.109 190.383V130.755L312.128 114.598L309.978 113.358Z" fill="#37474F"/>
<path d="M309.977 113.358L312.128 114.598L312.118 171.757L309.977 172.997V113.358Z" fill="#263238"/>
<path d="M312.118 171.756L340.109 187.903V130.754L312.128 114.597L312.118 171.756Z" fill="#12B76A"/>
<path d="M322.882 127.046L330.913 141.953L325.35 143.373L328.116 155.885L320.763 140.215L326.378 138.997L322.882 127.046Z" fill="#FAFAFA"/>
<path opacity="0.15" d="M334.65 165.028L316.501 154.55C315.865 154.179 315.346 154.444 315.346 155.133C315.375 155.517 315.495 155.89 315.696 156.219C315.896 156.549 316.172 156.826 316.501 157.029L334.65 167.518C335.275 167.878 335.794 167.624 335.794 166.935C335.767 166.55 335.649 166.176 335.45 165.845C335.251 165.514 334.977 165.234 334.65 165.028Z" fill="black"/>
<path opacity="0.15" d="M334.65 170.01L316.501 159.521C315.865 159.161 315.346 159.415 315.346 160.104C315.374 160.489 315.494 160.861 315.695 161.191C315.895 161.521 316.172 161.798 316.501 162L334.65 172.489C335.275 172.849 335.794 172.595 335.794 171.906C335.767 171.522 335.649 171.15 335.45 170.821C335.251 170.491 334.977 170.213 334.65 170.01Z" fill="black"/>
<path opacity="0.15" d="M334.65 174.978L316.501 164.499C315.865 164.128 315.346 164.383 315.346 165.071C315.375 165.458 315.495 165.831 315.696 166.163C315.896 166.494 316.172 166.773 316.501 166.978L334.65 177.457C335.275 177.828 335.794 177.563 335.794 176.885C335.767 176.499 335.65 176.125 335.451 175.794C335.252 175.462 334.977 175.183 334.65 174.978Z" fill="black"/>
<path d="M370.738 152.92C370.738 150.24 369.784 148.375 368.29 147.623C368.089 147.517 367.231 147.051 367.072 146.924C365.748 146.161 363.957 146.245 361.997 147.379C357.907 149.742 354.581 155.739 354.581 160.771V172.478C354.581 175.011 355.418 176.801 356.774 177.67C357.049 177.85 358.056 178.412 358.289 178.539C359.603 179.28 361.372 179.185 363.311 178.062C367.411 175.699 370.727 169.703 370.727 164.67L370.738 152.92Z" fill="#12B76A"/>
<path d="M363.321 148.024C367.422 145.661 370.738 147.833 370.738 152.866V164.573C370.738 169.606 367.422 175.602 363.321 177.965C359.221 180.328 355.905 178.156 355.905 173.123V161.395C355.916 156.383 359.232 150.387 363.321 148.024Z" fill="#12B76A"/>
<path opacity="0.7" d="M363.321 148.024C367.422 145.661 370.738 147.833 370.738 152.866V164.573C370.738 169.606 367.422 175.602 363.321 177.965C359.221 180.328 355.905 178.156 355.905 173.123V161.395C355.916 156.383 359.232 150.387 363.321 148.024Z" fill="white"/>
<path opacity="0.5" d="M358.172 178.347C357.833 178.146 357.017 177.712 356.795 177.553C355.428 176.695 354.591 174.883 354.591 172.361V160.675C354.657 158.234 355.276 155.839 356.403 153.672L357.717 154.424C356.593 156.588 355.977 158.979 355.915 161.417V173.071C355.915 175.688 356.784 177.51 358.172 178.347Z" fill="white"/>
<path opacity="0.7" d="M360.619 178.887C360.306 178.929 359.989 178.929 359.676 178.887C359.99 178.919 360.306 178.919 360.619 178.887Z" fill="white"/>
<path opacity="0.9" d="M368.044 147.389C367.264 147.111 366.43 147.024 365.61 147.135C364.789 147.245 364.008 147.55 363.329 148.024C360.897 149.573 358.951 151.776 357.714 154.381L356.4 153.629C357.621 151.02 359.562 148.815 361.994 147.272C363.954 146.138 365.745 146.054 367.069 146.817L368.044 147.389Z" fill="white"/>
<path d="M363.32 155.038C365.365 153.852 367.028 154.816 367.028 157.157C366.961 158.444 366.589 159.697 365.945 160.812C365.3 161.928 364.401 162.876 363.32 163.578C361.275 164.754 359.623 163.8 359.623 161.459C359.689 160.173 360.059 158.921 360.702 157.805C361.344 156.689 362.241 155.741 363.32 155.038Z" fill="#37474F"/>
<path d="M366.139 156.691C366.197 155.922 365.949 155.161 365.45 154.572C364.712 154.455 363.956 154.617 363.331 155.028C362.261 155.725 361.369 156.663 360.727 157.767C360.084 158.871 359.71 160.11 359.634 161.385C359.577 162.154 359.824 162.915 360.322 163.504C361.059 163.626 361.815 163.467 362.441 163.059C363.513 162.361 364.406 161.421 365.048 160.315C365.691 159.209 366.064 157.968 366.139 156.691Z" fill="#455A64"/>
<path d="M234.245 209.847L235.199 213.82C237.392 217.931 242.245 223.122 243.982 222.688C245.54 222.307 246.493 220.039 246.981 217.242C247.214 215.905 247.348 214.552 247.383 213.195C247.531 208.787 245.571 198.532 239.469 195.798C238.855 195.537 238.176 195.475 237.525 195.622C236.875 195.768 236.287 196.115 235.845 196.614C235.03 197.429 234.423 198.428 234.076 199.527C233.059 202.579 234.108 209.688 234.245 209.847Z" fill="#12B76A"/>
<path opacity="0.3" d="M234.245 209.847C234.563 211.489 235.199 213.82 235.199 213.82C237.392 217.931 242.245 223.122 243.982 222.688C245.54 222.307 246.493 220.039 246.981 217.242C247.214 215.905 247.348 214.552 247.383 213.195C247.531 208.787 245.571 198.532 239.469 195.798C238.855 195.537 238.176 195.475 237.525 195.622C236.875 195.768 236.287 196.115 235.845 196.614C235.03 197.429 234.423 198.428 234.076 199.527C233.059 202.579 234.108 209.688 234.245 209.847Z" fill="black"/>
<path d="M235.199 213.82C237.392 217.931 242.245 223.122 243.982 222.688C245.54 222.307 246.493 220.039 246.981 217.242C247.214 215.905 247.348 214.552 247.383 213.195C247.531 208.787 245.571 198.532 239.469 195.798C238.855 195.537 238.176 195.475 237.525 195.622C236.875 195.768 236.287 196.115 235.845 196.614L236.682 198.5C240.92 200.333 242.096 206.923 241.704 211.934C241.312 216.945 237.646 216.405 235.199 213.82Z" fill="#12B76A"/>
<path opacity="0.35" d="M235.199 213.82C237.392 217.931 242.245 223.122 243.982 222.688C245.54 222.307 246.493 220.039 246.981 217.242C247.214 215.905 247.348 214.552 247.383 213.195C247.531 208.787 245.571 198.532 239.469 195.798C238.855 195.537 238.176 195.475 237.525 195.622C236.875 195.768 236.287 196.115 235.845 196.614L236.682 198.5C240.92 200.333 242.096 206.923 241.704 211.934C241.312 216.945 237.646 216.405 235.199 213.82Z" fill="black"/>
<path d="M234.092 199.537C235.638 197.906 239.474 197.821 242.695 202.26C245.915 206.699 246.933 214.296 246.986 217.252C247.218 215.911 247.356 214.555 247.399 213.194C247.547 208.797 245.587 198.531 239.484 195.808C236.931 194.632 234.823 197.238 234.092 199.537Z" fill="#37474F"/>
<path d="M32.2997 197.302L93.0932 163.769C95.6566 161.967 98.5298 160.653 101.569 159.891C98.9416 144.984 120.64 127.725 140.77 133.468C140.77 133.468 186.328 152.539 197.559 164.564C214.341 182.575 234.641 202.409 240.701 217.909C241.761 220.717 139.298 322.725 139.298 322.725L96.9074 347.231L-12.7605 222.147C-4.09383 204.697 7.14737 190.977 32.2997 197.302ZM140.866 139.878C132.443 137.632 126.52 137.568 118.51 144.974C113.107 149.985 111.338 164.913 116.074 167.393L150.242 185.298H150.295L150.666 185.489C153.717 187.089 153.336 183.73 152.785 180.838C151.492 173.517 148.759 158.143 147.233 149.487C146.672 144.963 144.701 140.895 140.866 139.878ZM233.507 219.668C229.873 207.42 206.374 183.645 201.045 178.719C187.706 166.46 176.676 158.27 173.064 156.289C164.047 151.352 159.375 148.958 156.228 147.411C152.308 145.482 151.185 146.404 151.28 147.527C151.333 148.078 151.418 148.756 151.556 149.551L155.794 172.457C156.504 175.784 157.415 176.494 162.956 179.513C183.478 190.659 233.37 219.604 233.507 219.668Z" fill="#12B76A"/>
<path opacity="0.2" d="M32.2997 197.302L93.0933 163.769C95.6566 161.967 98.5298 160.653 101.569 159.891C98.9417 144.984 120.64 127.725 140.77 133.468C140.77 133.468 183.055 152.39 194.306 164.468C211.089 182.48 232.543 204.157 238.582 219.657C239.642 222.465 139.298 322.725 139.298 322.725L96.9074 347.231L-12.7604 222.147C-4.0938 204.697 7.14738 190.977 32.2997 197.302ZM140.866 139.878C132.443 137.632 126.52 137.568 118.51 144.974C113.107 149.985 111.338 164.913 116.074 167.393L150.242 185.298H150.295L150.666 185.489C153.717 187.089 153.336 183.73 152.785 180.838C151.492 173.517 148.759 158.143 147.233 149.487C146.672 144.963 144.701 140.895 140.866 139.878ZM233.508 219.668C229.873 207.42 206.374 183.645 201.045 178.719C187.706 166.46 176.676 158.27 173.064 156.289C164.047 151.352 159.375 148.958 156.228 147.411C152.308 145.482 151.185 146.404 151.28 147.527C151.333 148.078 151.418 148.756 151.556 149.551L155.794 172.457C156.504 175.784 157.415 176.494 162.956 179.513C183.478 190.659 233.37 219.604 233.508 219.668Z" fill="black"/>
<path d="M108.411 251.232L120.828 250.988L139.708 240.16C141.472 239.274 143.401 238.768 145.371 238.673C147.342 238.578 149.311 238.897 151.151 239.609L174.068 249.939L189.769 249.632V258.796C189.769 259.856 189.038 260.915 187.555 261.742L146.426 285.485C144.757 286.348 142.881 286.727 141.009 286.579C139.136 286.431 137.343 285.762 135.831 284.648L110.286 263.914C109.729 263.507 109.27 262.979 108.946 262.37C108.621 261.761 108.438 261.086 108.411 260.396V251.232Z" fill="#37474F"/>
<path d="M187.568 252.576L146.439 276.329C144.77 277.19 142.894 277.567 141.022 277.42C139.15 277.272 137.357 276.604 135.844 275.492L110.3 254.748C107.545 252.512 107.81 249.259 110.893 247.501L139.711 230.983C141.475 230.1 143.404 229.595 145.374 229.5C147.344 229.406 149.313 229.723 151.153 230.432L187.25 246.717C190.514 248.179 190.641 250.806 187.568 252.576Z" fill="#455A64"/>
<path d="M108.408 251.241V260.385C108.434 261.073 108.616 261.747 108.941 262.355C109.266 262.962 109.725 263.488 110.283 263.892L135.828 284.626C137.276 285.731 139.012 286.393 140.828 286.533V277.368C139.012 277.228 137.276 276.566 135.828 275.461L110.283 254.716C109.732 254.313 109.278 253.792 108.954 253.19C108.629 252.589 108.443 251.923 108.408 251.241Z" fill="#263238"/>
<path d="M104.442 248.519C104.38 248.928 104.428 249.346 104.583 249.73C104.738 250.114 104.993 250.45 105.321 250.701L115.8 256.74C115.457 256.503 115.19 256.172 115.03 255.787C114.871 255.402 114.825 254.979 114.899 254.568L117.177 203.395C117.292 202.229 117.667 201.103 118.273 200.1C118.88 199.097 119.704 198.243 120.684 197.6L145.37 183.36C145.746 183.1 146.184 182.944 146.64 182.907C147.095 182.87 147.553 182.953 147.966 183.148L137.572 177.152C137.153 176.938 136.684 176.841 136.214 176.871C135.745 176.901 135.291 177.056 134.902 177.321L110.237 191.561C109.254 192.201 108.428 193.055 107.819 194.058C107.21 195.061 106.835 196.188 106.72 197.356L104.442 248.519Z" fill="#263238"/>
<path d="M145.358 183.339L120.64 197.589C119.661 198.231 118.838 199.084 118.232 200.085C117.625 201.086 117.249 202.21 117.133 203.374L114.855 254.558C114.76 256.677 116.18 257.557 118.034 256.487L153.156 236.208C154.105 235.599 154.867 234.739 155.357 233.724C155.847 232.708 156.046 231.577 155.932 230.455L149.246 185.225C149.23 184.781 149.093 184.351 148.85 183.979C148.607 183.607 148.268 183.308 147.869 183.114C147.469 182.921 147.024 182.839 146.582 182.879C146.14 182.918 145.717 183.078 145.358 183.339Z" fill="#37474F"/>
<path d="M107.801 194.061L118.258 200.1C118.851 199.078 119.683 198.216 120.684 197.589L145.37 183.349C145.746 183.089 146.184 182.933 146.64 182.896C147.095 182.859 147.553 182.942 147.966 183.137L137.572 177.141C137.153 176.927 136.684 176.83 136.214 176.86C135.745 176.89 135.291 177.045 134.902 177.31L110.237 191.55C109.238 192.183 108.403 193.043 107.801 194.061Z" fill="#455A64"/>
<path d="M112.11 186.623V173.909C112.11 164.744 117.969 153.938 125.184 149.774C128.489 147.856 131.541 147.655 133.808 148.947L141.828 153.524L138.29 160.284V171.525C138.226 172.685 137.891 173.814 137.311 174.82C136.732 175.827 135.924 176.683 134.952 177.32L126.996 181.908L121.009 193.361L113.137 188.784C112.787 188.55 112.506 188.226 112.325 187.845C112.144 187.465 112.07 187.042 112.11 186.623Z" fill="#263238"/>
<path d="M125.184 167.881L114.938 161.969C117.333 156.746 121.031 152.137 125.184 149.742C128.489 147.825 131.541 147.624 133.808 148.916L141.828 153.525L138.29 160.284V162.456L125.184 167.881Z" fill="#455A64"/>
<path d="M119.953 191.178V178.464C119.953 169.3 125.812 158.493 133.027 154.319C140.242 150.144 146.069 154.191 146.069 163.356V176.07C146.006 177.23 145.67 178.359 145.091 179.365C144.511 180.372 143.703 181.228 142.732 181.865L123.279 193.085C121.457 194.177 119.953 193.318 119.953 191.178Z" fill="#37474F"/>
<path d="M144.617 194.241C147.657 205.534 149.111 217.194 148.94 228.887C148.858 230.084 148.534 231.253 147.988 232.322C147.442 233.391 146.684 234.338 145.761 235.106C139.664 239.624 133.065 243.424 126.097 246.432C125.701 246.655 125.251 246.766 124.796 246.754C124.341 246.742 123.898 246.607 123.514 246.364C123.129 246.121 122.818 245.778 122.612 245.372C122.407 244.966 122.315 244.512 122.347 244.058C121.648 231.546 121.609 219.005 122.23 206.489C122.525 204.07 123.729 201.854 125.599 200.291C130.073 197.018 134.886 194.237 139.955 191.995C140.404 191.785 140.894 191.677 141.389 191.68C141.885 191.683 142.374 191.796 142.82 192.011C143.266 192.226 143.659 192.538 143.97 192.923C144.281 193.309 144.502 193.759 144.617 194.241Z" fill="#12B76A"/>
<path opacity="0.15" d="M122.655 245.182C122.492 244.81 122.399 244.411 122.379 244.006C121.68 231.494 121.642 218.953 122.263 206.436C122.379 205.242 122.74 204.085 123.322 203.035C124.689 201.086 125.176 217.476 125.166 227.467C125.155 237.458 125.028 247.333 123.396 246.188L123.206 246.03C122.995 245.765 122.81 245.482 122.655 245.182Z" fill="black"/>
<g opacity="0.15">
<path d="M146.65 227.987L145.855 228.495C145.357 228.834 144.637 229.279 143.789 229.841C142.084 230.9 139.806 232.384 137.432 233.719C135.059 235.054 132.718 236.304 130.895 237.215C129.984 237.66 129.232 238.073 128.692 238.274C128.151 238.476 127.855 238.709 127.855 238.709L128.776 238.518C129.359 238.37 130.196 238.179 131.171 237.851C132.289 237.493 133.389 237.079 134.466 236.611C135.049 236.335 135.674 236.081 136.267 235.763C136.86 235.446 137.475 235.117 138.079 234.789C139.265 234.089 140.42 233.358 141.469 232.596C142.419 231.906 143.331 231.167 144.203 230.381C144.976 229.703 145.569 229.067 145.983 228.644C146.396 228.22 146.65 227.987 146.65 227.987Z" fill="black"/>
<path d="M146.65 221.523C146.65 221.523 146.353 221.693 145.855 222.021C145.357 222.35 144.637 222.816 143.789 223.367C142.084 224.426 139.806 225.92 137.432 227.245C135.059 228.569 132.718 229.83 130.895 230.741C129.984 231.197 129.232 231.599 128.692 231.853L127.855 232.277C127.855 232.277 128.194 232.277 128.776 232.087C129.359 231.896 130.196 231.747 131.171 231.43C132.146 231.112 133.29 230.688 134.466 230.179C135.049 229.904 135.674 229.65 136.267 229.332C136.86 229.014 137.475 228.696 138.079 228.368C139.265 227.668 140.42 226.927 141.469 226.164C142.419 225.475 143.331 224.736 144.203 223.95C144.976 223.272 145.569 222.636 145.983 222.212C146.396 221.788 146.65 221.523 146.65 221.523Z" fill="black"/>
<path d="M145.312 216.173L144.571 216.629C144.115 216.947 143.437 217.339 142.653 217.858C141.085 218.917 138.977 220.168 136.805 221.333C134.633 222.499 132.387 223.579 130.692 224.395L128.657 225.455C128.159 225.698 127.884 225.857 127.884 225.857L128.742 225.688C129.272 225.56 130.056 225.402 130.956 225.137C131.857 224.872 132.927 224.522 134.029 224.077C134.58 223.844 135.152 223.622 135.714 223.346C136.275 223.071 136.847 222.795 137.409 222.499C137.97 222.202 138.521 221.873 139.051 221.534C139.581 221.195 140.11 220.846 140.577 220.475C141.459 219.843 142.305 219.16 143.109 218.43C143.808 217.794 144.348 217.201 144.73 216.809C145.111 216.417 145.312 216.173 145.312 216.173Z" fill="black"/>
<path d="M144.775 210.133C144.775 210.133 144.51 210.282 144.055 210.578C143.599 210.875 142.995 211.257 142.2 211.755C140.675 212.729 138.641 213.979 136.532 215.081C134.424 216.183 132.294 217.2 130.61 217.974L128.628 218.948L127.887 219.34C127.887 219.34 128.194 219.34 128.713 219.192C129.232 219.044 129.985 218.917 130.832 218.673C131.68 218.429 132.739 218.101 133.809 217.698C134.339 217.476 134.869 217.285 135.452 217.02C136.034 216.755 136.511 216.49 137.104 216.215C137.698 215.939 138.164 215.622 138.694 215.304C139.223 214.986 139.7 214.636 140.177 214.318C141.028 213.708 141.842 213.046 142.614 212.337C143.302 211.723 143.821 211.151 144.182 210.769C144.542 210.388 144.775 210.133 144.775 210.133Z" fill="black"/>
<path d="M143.853 204.381L143.175 204.784L141.427 205.843C139.699 206.964 137.913 207.993 136.076 208.926C134.085 209.933 131.997 210.812 130.451 211.543C128.904 212.274 127.887 212.836 127.887 212.836C128.836 212.687 129.776 212.489 130.705 212.243C132.76 211.729 134.756 211.001 136.659 210.071C137.168 209.795 137.719 209.53 138.174 209.234C138.63 208.937 139.128 208.608 139.573 208.312C140.379 207.734 141.147 207.104 141.872 206.426C142.581 205.793 143.243 205.11 143.853 204.381Z" fill="black"/>
<path d="M141.713 198.84C141.713 198.84 140.823 199.338 139.594 200.132C138.365 200.927 136.669 201.912 134.942 202.813C133.215 203.713 131.446 204.55 130.111 205.218C128.776 205.885 127.907 206.404 127.907 206.404C128.74 206.298 129.565 206.135 130.376 205.917C132.162 205.449 133.892 204.789 135.536 203.946C135.981 203.703 136.426 203.459 136.849 203.194C137.273 202.929 137.676 202.654 138.068 202.378C138.768 201.869 139.43 201.31 140.049 200.704C140.652 200.128 141.208 199.504 141.713 198.84Z" fill="black"/>
</g>
<path d="M155.145 240.742C161.629 241.908 168.05 245.213 174.417 249.991C174.811 250.251 175.134 250.604 175.357 251.019C175.58 251.435 175.697 251.899 175.697 252.37C175.697 252.841 175.58 253.305 175.357 253.721C175.134 254.136 174.811 254.489 174.417 254.749C166.721 260.403 158.411 265.173 149.647 268.967C148.522 269.399 147.324 269.604 146.121 269.571C144.917 269.538 143.732 269.268 142.633 268.776C137.188 266.004 132.188 262.433 127.8 258.181C127.449 257.839 127.179 257.423 127.009 256.963C126.839 256.503 126.774 256.011 126.819 255.522C126.864 255.034 127.017 254.562 127.267 254.14C127.517 253.719 127.859 253.358 128.266 253.085C134.316 248.594 140.834 244.771 147.708 241.685C150.073 240.77 152.626 240.446 155.145 240.742Z" fill="#12B76A"/>
<g opacity="0.2">
<path d="M170.96 252.386C170.96 252.386 170.547 252.492 169.901 252.704C169.255 252.916 168.206 253.234 167.03 253.679C164.166 254.773 161.386 256.076 158.713 257.578C156.047 259.091 153.506 260.817 151.116 262.737C149.177 264.337 148.012 265.534 148.012 265.534L151.551 263.341C153.67 262.027 156.477 260.322 159.348 258.701C162.22 257.08 165.133 255.522 167.337 254.357L169.996 252.937L170.96 252.386Z" fill="black"/>
<path d="M164.773 248.825L163.713 249.143C163.025 249.365 162.018 249.673 160.853 250.128C157.986 251.212 155.206 252.512 152.536 254.017C149.867 255.525 147.326 257.251 144.939 259.176C143 260.776 141.835 261.973 141.835 261.973L145.363 259.78C147.482 258.466 150.3 256.761 153.172 255.14C156.043 253.519 158.956 251.961 161.15 250.796L163.766 249.334C164.413 249.037 164.773 248.825 164.773 248.825Z" fill="black"/>
<path d="M159.467 245.806L158.407 246.124C157.719 246.357 156.712 246.654 155.536 247.109C152.672 248.195 149.895 249.498 147.23 251.008C144.554 252.512 142.009 254.238 139.622 256.168C138.541 257.044 137.505 257.974 136.518 258.955C136.518 258.955 137.938 258.086 140.057 256.761C142.176 255.437 144.983 253.742 147.865 252.121C150.747 250.5 153.639 248.942 155.843 247.777L158.503 246.357C159.106 246.018 159.467 245.806 159.467 245.806Z" fill="black"/>
<path d="M153.667 243.327L152.607 243.613C151.971 243.815 151.05 244.09 149.98 244.493C147.342 245.48 144.784 246.67 142.33 248.053C139.88 249.439 137.551 251.031 135.369 252.81C133.6 254.283 132.53 255.395 132.53 255.395C132.53 255.395 132.869 255.215 133.441 254.855L135.793 253.414C137.742 252.217 140.328 250.659 142.966 249.176C145.604 247.692 148.263 246.252 150.276 245.171L152.702 243.847C153.338 243.529 153.667 243.327 153.667 243.327Z" fill="black"/>
</g>
<path d="M51.7122 284.477L64.1294 284.233L83.0307 273.405C84.7945 272.522 86.7234 272.016 88.6938 271.921C90.6642 271.827 92.6327 272.144 94.4732 272.854L117.379 283.237L133.081 282.93V292.095C133.081 293.154 132.35 294.214 130.856 295.04L89.7267 318.794C88.0582 319.658 86.1808 320.036 84.308 319.886C82.4351 319.736 80.6418 319.064 79.1318 317.946L53.5875 297.212C53.0299 296.807 52.5707 296.281 52.2443 295.674C51.9178 295.067 51.7323 294.394 51.7016 293.705L51.7122 284.477Z" fill="#37474F"/>
<path d="M130.857 285.833L89.7272 309.576C88.0597 310.441 86.1828 310.822 84.31 310.674C82.4371 310.526 80.6433 309.855 79.1323 308.739L53.588 288.005C50.8333 285.759 51.0876 282.517 54.1707 280.747L83.0312 264.24C84.7942 263.354 86.7233 262.848 88.6941 262.753C90.6649 262.658 92.6338 262.977 94.4737 263.689L130.571 279.963C133.802 281.425 133.94 284.053 130.857 285.833Z" fill="#455A64"/>
<path d="M51.6991 284.487V293.641C51.7247 294.33 51.9069 295.004 52.2318 295.611C52.5567 296.219 53.0159 296.744 53.5744 297.148L79.1187 317.882C80.5617 318.989 82.2956 319.652 84.1089 319.789V310.625C82.2956 310.487 80.5617 309.824 79.1187 308.718L53.5744 287.984C53.0223 287.576 52.5676 287.051 52.2432 286.446C51.9189 285.842 51.733 285.173 51.6991 284.487Z" fill="#263238"/>
<path d="M47.7382 281.775C47.6743 282.183 47.7223 282.6 47.8772 282.983C48.0321 283.365 48.288 283.698 48.6176 283.947L59.0854 289.996C58.7427 289.756 58.4759 289.423 58.3163 289.037C58.1568 288.65 58.1111 288.226 58.1848 287.814L60.4627 236.619C60.5795 235.452 60.956 234.326 61.5647 233.323C62.1733 232.32 62.9986 231.466 63.9802 230.824L88.6557 216.595C89.0351 216.338 89.4745 216.184 89.9311 216.146C90.3877 216.109 90.8462 216.191 91.2621 216.383L80.8579 210.386C80.4389 210.178 79.9724 210.084 79.5055 210.114C79.0386 210.144 78.5878 210.296 78.1986 210.556L53.5336 224.806C52.5518 225.446 51.7261 226.297 51.1173 227.299C50.5085 228.3 50.1322 229.425 50.0161 230.591L47.7382 281.775Z" fill="#263238"/>
<path d="M88.659 216.595L63.9834 230.834C63.0032 231.476 62.1787 232.328 61.5701 233.329C60.9615 234.33 60.5843 235.454 60.466 236.619L58.1986 287.814C58.1033 289.933 59.523 290.802 61.3771 289.742L96.4992 269.463C97.4474 268.856 98.2087 267.998 98.6987 266.985C99.1887 265.971 99.3882 264.841 99.2751 263.721L92.5685 218.491C92.5603 218.042 92.4276 217.603 92.1853 217.224C91.943 216.845 91.6005 216.54 91.1956 216.344C90.7908 216.147 90.3396 216.067 89.8918 216.111C89.4441 216.155 89.0174 216.323 88.659 216.595Z" fill="#37474F"/>
<path d="M51.0968 227.317L61.5434 233.345C62.1438 232.326 62.9793 231.465 63.9802 230.834L88.6557 216.595C89.0351 216.338 89.4745 216.184 89.9311 216.146C90.3877 216.109 90.8462 216.191 91.2621 216.383L80.8579 210.386C80.4389 210.178 79.9724 210.084 79.5055 210.114C79.0386 210.144 78.5878 210.296 78.1986 210.556L53.5336 224.806C52.5298 225.433 51.6935 226.295 51.0968 227.317Z" fill="#455A64"/>
<path d="M55.4151 219.87V207.156C55.4151 197.981 61.2635 187.174 68.4892 183.01C71.7948 181.093 74.8461 180.891 77.1135 182.184L85.0808 186.824L81.5527 193.595V204.836C81.4914 205.996 81.156 207.125 80.574 208.131C79.992 209.136 79.1801 209.989 78.2047 210.621L70.2585 215.219L64.2724 226.672L56.4004 222.084C56.0506 221.839 55.7742 221.504 55.6006 221.114C55.427 220.724 55.3629 220.294 55.4151 219.87Z" fill="#263238"/>
<path d="M68.4892 201.127L58.2439 195.215C60.6384 189.992 64.3254 185.383 68.4892 182.988C71.7948 181.071 74.8461 180.869 77.1135 182.162L85.0808 186.824L81.5527 193.594V195.798L68.4892 201.127Z" fill="#455A64"/>
<path d="M63.2526 224.435V211.721C63.2526 202.557 69.101 191.75 76.3267 187.586C83.5524 183.422 89.3902 187.47 89.3902 196.634V209.348C89.3255 210.509 88.9887 211.638 88.4071 212.645C87.8256 213.652 87.0155 214.508 86.0422 215.144L66.6112 226.364C64.7465 227.423 63.2526 226.565 63.2526 224.435Z" fill="#37474F"/>
<path d="M87.9173 227.434C90.9508 238.727 92.4055 250.386 92.24 262.079C92.1548 263.277 91.8295 264.447 91.2835 265.517C90.7374 266.587 89.9818 267.536 89.0615 268.309C82.9611 272.823 76.3633 276.623 69.3974 279.635C68.9994 279.855 68.5497 279.963 68.0953 279.949C67.641 279.935 67.1988 279.799 66.8151 279.555C66.4315 279.311 66.1206 278.969 65.915 278.563C65.7094 278.158 65.6168 277.705 65.6468 277.251C64.9481 264.739 64.9092 252.198 65.5303 239.681C65.8197 237.261 67.0253 235.043 68.8994 233.483C73.3708 230.216 78.1803 227.438 83.2449 225.198C83.6934 224.986 84.1835 224.876 84.6796 224.877C85.1758 224.879 85.6655 224.99 86.113 225.204C86.5606 225.418 86.9547 225.73 87.2668 226.115C87.579 226.501 87.8011 226.951 87.9173 227.434Z" fill="#12B76A"/>
<path opacity="0.15" d="M65.952 278.427C65.7899 278.055 65.6965 277.657 65.6765 277.251C64.9778 264.739 64.9389 252.198 65.56 239.682C65.6795 238.488 66.0399 237.331 66.6195 236.281C67.9862 234.342 68.463 250.721 68.4524 260.712C68.4418 270.703 68.3253 280.588 66.6831 279.434C66.6182 279.386 66.5579 279.333 66.5029 279.275C66.29 279.012 66.1053 278.728 65.952 278.427Z" fill="black"/>
<g opacity="0.15">
<path d="M89.9169 261.233L89.1223 261.741C88.6243 262.091 87.9038 262.536 87.0033 263.087C85.3081 264.146 83.0302 265.64 80.6463 266.964C78.2625 268.289 75.921 269.55 74.1093 270.461C73.1981 270.916 72.4459 271.319 71.9055 271.573L71.0685 271.997C71.0685 271.997 71.4076 271.944 71.9903 271.806C72.573 271.668 73.41 271.467 74.3847 271.149C75.3595 270.831 76.5037 270.408 77.6798 269.899C78.2625 269.624 78.877 269.369 79.4703 269.052C80.0636 268.734 80.6781 268.416 81.282 268.087C82.4687 267.388 83.6341 266.646 84.6724 265.884C85.6253 265.194 86.5413 264.455 87.4165 263.669C88.1899 262.991 88.7726 262.356 89.1964 261.932C89.6202 261.508 89.9169 261.233 89.9169 261.233Z" fill="black"/>
<path d="M89.9169 254.769C89.9169 254.769 89.6202 254.939 89.1223 255.278C88.6243 255.617 87.9038 256.062 87.0033 256.623C85.3081 257.736 83.0302 259.166 80.6463 260.501C78.2625 261.836 75.921 263.076 74.1093 263.987C73.1981 264.442 72.4459 264.845 71.9055 265.099C71.3652 265.354 71.0685 265.534 71.0685 265.534L71.9903 265.332C72.573 265.184 73.41 265.004 74.3847 264.675C75.3595 264.347 76.5037 263.934 77.6798 263.425C78.2625 263.16 78.877 262.906 79.4703 262.578C80.0636 262.249 80.6781 261.942 81.282 261.613C82.4687 260.914 83.6341 260.183 84.6724 259.42C85.7107 258.658 86.6537 257.895 87.4165 257.206C88.1793 256.517 88.7726 255.892 89.1964 255.468C89.6202 255.045 89.9169 254.769 89.9169 254.769Z" fill="black"/>
<path d="M88.6106 249.419L87.869 249.875C87.4134 250.193 86.7353 250.595 85.9513 251.104C84.3727 252.163 82.2749 253.413 80.0923 254.589C77.9098 255.766 75.6848 256.836 73.9896 257.651L71.9448 258.658C71.4575 258.902 71.182 259.061 71.182 259.061C71.182 259.061 71.4892 259.061 72.0296 258.891C72.5699 258.721 73.3434 258.616 74.2545 258.34C75.1657 258.065 76.2146 257.726 77.327 257.281C77.8674 257.048 78.4501 256.836 79.0116 256.55C79.5731 256.263 80.1453 255.999 80.7068 255.702C81.2683 255.405 81.7663 255.077 82.3384 254.748C82.9106 254.42 83.3979 254.06 83.8747 253.689C84.7542 253.057 85.5962 252.374 86.3963 251.644C87.1061 251.008 87.6465 250.426 88.0279 250.023L88.6106 249.419Z" fill="black"/>
<path d="M88.0731 243.379C88.0731 243.379 87.7976 243.538 87.3526 243.824C86.9077 244.11 86.2932 244.513 85.4985 245C83.9729 245.975 81.9387 247.225 79.8303 248.327C77.7219 249.429 75.5394 250.446 73.9077 251.23L71.9265 252.205C71.4497 252.438 71.1848 252.597 71.1848 252.597L72.0112 252.438C72.5304 252.321 73.2826 252.173 74.1302 251.919C74.9778 251.664 76.0373 251.357 77.1074 250.944C77.6371 250.732 78.1669 250.531 78.7496 250.266C79.3323 250.001 79.8091 249.747 80.4024 249.471C80.9957 249.196 81.4619 248.867 81.9916 248.55C82.5214 248.232 82.9982 247.893 83.4749 247.564C84.3288 246.957 85.1428 246.295 85.9118 245.583C86.6004 244.968 87.1196 244.396 87.4798 244.015C87.84 243.634 88.0731 243.379 88.0731 243.379Z" fill="black"/>
<path d="M87.1512 237.679L86.4626 238.092L84.7144 239.152C83.0021 240.266 81.234 241.291 79.4169 242.224C77.4251 243.284 75.3379 244.121 73.7911 244.852C72.2442 245.583 71.2271 246.134 71.2271 246.134C72.1728 245.986 73.11 245.788 74.0347 245.541C76.0879 245.044 78.0836 244.334 79.9891 243.422C80.5082 243.146 81.0486 242.871 81.5041 242.574C81.9597 242.277 82.4683 241.96 82.9133 241.652C83.7194 241.078 84.4873 240.451 85.2124 239.777C85.9073 239.124 86.5553 238.423 87.1512 237.679Z" fill="black"/>
<path d="M85.0106 232.085C85.0106 232.085 84.1206 232.594 82.8916 233.378C81.6626 234.162 79.9674 235.169 78.2404 236.059C76.5135 236.949 74.7335 237.796 73.4092 238.474C72.0848 239.152 71.2054 239.65 71.2054 239.65C72.0349 239.544 72.8562 239.381 73.6634 239.163C75.4539 238.698 77.1878 238.037 78.8337 237.192C79.2787 236.949 79.7237 236.705 80.1475 236.44C80.5713 236.175 80.9739 235.9 81.3659 235.624C82.0617 235.113 82.7235 234.558 83.3472 233.961C83.949 233.379 84.5051 232.752 85.0106 232.085Z" fill="black"/>
</g>
<path d="M98.3946 273.987C104.879 275.153 111.299 278.458 117.667 283.247C118.06 283.507 118.383 283.86 118.606 284.275C118.83 284.69 118.947 285.155 118.947 285.626C118.947 286.097 118.83 286.561 118.606 286.976C118.383 287.392 118.06 287.745 117.667 288.004C109.967 293.652 101.658 298.418 92.8958 302.212C90.6259 303.081 88.1043 303.017 85.882 302.032C80.4378 299.259 75.4384 295.688 71.0491 291.437C70.6963 291.096 70.4245 290.68 70.2537 290.219C70.0828 289.759 70.0174 289.266 70.0621 288.778C70.1068 288.289 70.2606 287.816 70.5121 287.394C70.7636 286.973 71.1064 286.613 71.5153 286.341C77.5749 281.862 84.1004 278.051 90.9782 274.973C93.3339 274.048 95.8791 273.71 98.3946 273.987Z" fill="#12B76A"/>
<g opacity="0.2">
<path d="M114.29 285.631L113.23 285.949C112.542 286.182 111.535 286.489 110.37 286.934C107.501 288.017 104.72 289.321 102.053 290.833C99.351 292.317 96.7812 294.029 94.3714 295.95C93.2882 296.828 92.252 297.761 91.2671 298.748L94.7952 296.554C96.9142 295.23 99.7324 293.524 102.604 291.903C105.475 290.282 108.388 288.725 110.582 287.559L113.23 286.182C113.887 285.843 114.29 285.631 114.29 285.631Z" fill="black"/>
<path d="M108.068 282.072C108.068 282.072 107.665 282.178 107.008 282.4C106.351 282.623 105.313 282.93 104.148 283.375C101.279 284.458 98.4984 285.762 95.8307 287.274C93.1567 288.775 90.6154 290.501 88.2342 292.433C87.1493 293.313 86.1097 294.246 85.1193 295.231L88.658 293.037C90.777 291.713 93.5846 290.007 96.4664 288.386C99.3483 286.765 102.251 285.208 104.444 284.042L107.104 282.623C107.708 282.284 108.068 282.072 108.068 282.072Z" fill="black"/>
<path d="M102.762 279.052C102.762 279.052 102.348 279.158 101.702 279.381C101.056 279.603 99.9963 279.91 98.8309 280.355C95.963 281.441 93.1826 282.744 90.5139 284.254C87.8454 285.764 85.3048 287.49 82.9174 289.414C81.8342 290.291 80.7979 291.225 79.813 292.211L83.3517 290.018C85.4707 288.704 88.2784 286.988 91.1496 285.367C94.0208 283.746 96.9344 282.188 99.1382 281.023L101.797 279.603L102.762 279.052Z" fill="black"/>
<path d="M96.9678 276.583C96.9678 276.583 96.597 276.668 95.9083 276.869C95.2197 277.071 94.3509 277.336 93.2702 277.749C90.6349 278.73 88.0807 279.917 85.6313 281.298C83.1778 282.685 80.8457 284.276 78.6598 286.055C77.6737 286.872 76.7295 287.738 75.831 288.651C75.831 288.651 76.17 288.46 76.7316 288.1L79.0942 286.659C81.0331 285.462 83.6288 283.904 86.267 282.421C88.9051 280.938 91.5645 279.497 93.5775 278.416L96.0037 277.092L96.9678 276.583Z" fill="black"/>
</g>
<path d="M-28.5554 274.753L13.8878 250.247L-9.68584 236.632L-32.645 251.126L-28.5554 274.753Z" fill="#12B76A"/>
<path opacity="0.35" d="M-28.5554 274.753L13.8878 250.247L-9.68584 236.632L-32.645 251.126L-28.5554 274.753Z" fill="black"/>
<path d="M-10.6583 268.926L-16.7504 256.826L-2.25657 248.425C2.35221 245.765 8.49727 246.073 15.2356 249.961C29.5599 258.236 32.5689 274.594 32.5689 292.637C32.5689 302.088 37.9829 313.721 32.8973 316.751L32.696 316.868L17.8631 325.45L11.4321 312.683C-0.783863 303.37 -10.1921 285.03 -10.6583 268.926Z" fill="#37474F"/>
<path d="M-10.6583 268.926L-16.7504 256.826L-2.25657 248.425C2.35221 245.765 8.49727 246.073 15.2356 249.961C29.5599 258.236 32.5689 274.594 32.5689 292.637C32.5689 302.088 37.9829 313.721 32.8973 316.751L32.696 316.868L17.8631 325.45L11.4321 312.683C-0.783863 303.37 -10.1921 285.03 -10.6583 268.926Z" fill="#263238"/>
<path d="M-25.7768 276.373C-25.7768 291.937 -17.1419 309.938 -5.57227 319.897C-3.80218 321.422 -1.89796 322.784 0.117186 323.966C14.4415 332.24 26.0641 324.315 26.0535 306.272C26.0535 292.647 19.4211 277.126 10.0022 266.796L9.92808 266.711C7.08679 263.534 3.77862 260.808 0.117186 258.627C-14.1647 250.395 -25.7768 258.341 -25.7768 276.373Z" fill="#37474F"/>
<path d="M0.155996 269.572C-8.95562 264.274 -16.3508 269.794 -16.3508 281.819C-16.3508 293.844 -8.93443 307.872 0.155996 313.138C9.24642 318.403 16.6628 312.915 16.6628 300.879C16.6628 288.844 9.26761 274.837 0.155996 269.572Z" fill="#455A64"/>
<path d="M-7.28311 287.964C-6.70039 293.95 -2.89682 300.328 1.19282 302.193C1.89025 302.592 2.69162 302.772 3.49276 302.71C4.29391 302.648 5.05776 302.346 5.68504 301.843C7.14714 300.625 7.89938 298.103 7.57094 294.734C6.99881 288.748 3.20584 282.381 -0.904986 280.516C-1.83529 280.039 -2.899 279.89 -3.92454 280.092C-6.2978 280.664 -7.69631 283.61 -7.28311 287.964Z" fill="#FAFAFA"/>
<path d="M-5.79983 287.201C-5.21711 293.187 -1.41354 299.566 2.6761 301.43C3.60333 301.905 4.66421 302.051 5.68504 301.843C7.14714 300.625 7.89938 298.103 7.57094 294.734C6.99881 288.748 3.20584 282.381 -0.904987 280.516C-1.83529 280.039 -2.899 279.89 -3.92454 280.092C-5.36545 281.332 -6.12827 283.853 -5.79983 287.201Z" fill="#E0E0E0"/>
<path d="M-25.7782 276.374C-25.7782 291.938 -17.1433 309.938 -5.57368 319.898C-13.594 310.821 -19.2463 299.902 -22.0276 288.113C-24.2207 277.709 -23.3943 262.78 -14.4734 259.009C-5.55248 255.237 6.21846 263.109 9.96906 266.764C7.12777 263.587 3.8196 260.862 0.158166 258.68C-14.1661 250.395 -25.7782 258.341 -25.7782 276.374Z" fill="#455A64"/>
<path d="M-12.7575 222.149C-12.7575 207.242 14.3549 184.876 34.5805 194.814C34.5805 194.814 73.3155 214.743 82.4377 226.821C96.0416 244.833 108.162 276.617 111.468 292.149C112.072 294.957 102.377 290.03 99.0505 289.236C98.647 289.166 98.2324 289.199 97.8452 289.332C97.458 289.466 97.1109 289.695 96.8362 289.999L96.9104 347.211L34.3474 311.188C34.3473 309.514 34.2589 307.842 34.0826 306.177C32.1649 286.333 17.6181 263.31 2.02242 254.315C-14.9294 244.536 -28.6287 253.669 -28.6287 274.721C-31.4575 273.407 -32.8666 272.072 -33.5659 268.565C-34.2651 265.058 -34.2757 259.39 -34.2757 249.441C-34.2757 237.988 -27.9718 225.963 -12.7575 222.149ZM3.03952 223.611L31.3809 239.98H31.4338L31.7623 240.171C34.5276 241.771 34.7395 238.412 34.7395 235.52C34.7395 228.199 34.7395 220.401 34.7395 211.745C34.8984 207.168 33.68 203.099 29.993 202.082C21.962 199.836 16.05 199.772 6.73713 207.178C0.507324 212.253 -1.19844 221.132 3.03952 223.611ZM96.8044 277.645C95.3317 265.397 85.6586 247.852 82.7026 241.834C75.9748 228.114 62.5723 220.475 59.3196 218.525C51.1722 213.588 46.9236 211.194 44.0524 209.647C40.4713 207.719 39.1893 208.587 39.0834 209.763C39.0834 210.314 38.9986 210.992 38.9986 211.787V240.224C38.879 241.506 39.1434 242.796 39.7585 243.928C40.3735 245.06 41.3113 245.983 42.4526 246.581C42.4526 246.581 96.6773 277.624 96.8362 277.687L96.8044 277.645Z" fill="#12B76A"/>
<path opacity="0.5" d="M34.8192 249.335C33.9761 250.614 33.4162 252.059 33.177 253.573C33.177 253.573 4.46483 235.561 -4.13823 231.323C-8.58831 229.09 -13.7161 228.612 -18.502 229.986C-23.2879 231.361 -27.3814 234.485 -29.9686 238.74C-29.9686 238.74 -27.3729 231.186 -20.073 227.806C-11.5971 223.875 -6.88232 226.323 9.16896 234.756C25.2202 243.19 34.8192 249.335 34.8192 249.335Z" fill="white"/>
<path opacity="0.5" d="M90.6383 280.4L45.7477 254.75C45.1589 255.191 44.691 255.774 44.3873 256.445C44.0835 257.115 43.9539 257.851 44.0102 258.585L90.6383 280.4Z" fill="white"/>
<path d="M53.3427 271.362C53.3955 271.394 53.4558 271.411 53.5174 271.412C53.5791 271.413 53.6399 271.397 53.6936 271.367C53.7474 271.337 53.7923 271.293 53.8237 271.24C53.8551 271.187 53.8719 271.127 53.8724 271.065V269.465C53.8724 268.215 51.9971 266.117 49.698 264.793L46.2971 262.822C43.9874 261.498 42.1121 261.424 42.1121 262.674V264.03C42.1138 264.307 42.188 264.579 42.3274 264.819C42.4668 265.059 42.6665 265.258 42.9067 265.397L53.3427 271.362Z" fill="#37474F"/>
<path opacity="0.15" d="M88.146 331.69C90.6888 333.046 91.208 327.59 92.6595 316.963C94.111 306.337 93.9732 288.537 93.9732 288.537C95.7214 296.505 95.0327 315.787 93.9732 328.141C92.9138 340.495 90.6253 339.35 88.146 337.507L43.7852 309.801L88.146 331.69Z" fill="black"/>
<path opacity="0.15" d="M42.0161 252.429C42.0161 252.429 38.7211 256.296 38.7211 264.677C38.7211 274.753 38.6151 307.978 38.6151 307.978C38.6151 307.978 36.7504 272.051 35.6168 263.692C34.4831 255.332 38.7211 250.617 38.7211 250.617L42.0161 252.429Z" fill="black"/>
<path d="M0.654556 209.922C2.51985 206.996 4.95465 204.475 7.8141 202.51C10.6736 200.544 13.8992 199.173 17.2991 198.48C28.5085 196.276 37.101 201.446 42.515 204.318C42.8753 204.508 43.2461 204.699 43.5745 204.921C47.9396 207.517 61.5117 215.22 67.9428 220.199C74.109 224.978 81.9281 234.481 85.2973 241.326C92.968 256.932 97.5026 269.773 98.5197 275.102C98.7951 276.564 100.204 281.735 98.1383 280.919C97.7886 280.781 96.1464 279.986 95.765 279.774C87.2891 275.134 75.5182 268.47 75.5182 268.47C75.5182 268.47 53.1947 255.215 43.5957 249.674C41.9747 248.742 41.5297 248.456 39.5697 247.227C37.6096 245.998 11.5249 231.197 2.95367 226.217C-2.42854 223.113 -2.82057 216.004 0.654556 209.922ZM39.0611 239.058C38.9523 240.332 39.222 241.61 39.8364 242.732C40.4509 243.853 41.3827 244.768 42.515 245.362L42.674 245.458L42.8858 245.585C46.0113 247.513 51.9763 250.978 56.6592 253.541L56.7758 253.605L57.03 253.753L57.3797 253.955C73.5369 262.77 95.3836 275.865 95.5213 275.929C92.2988 264.468 87.9956 253.339 82.6697 242.692C75.9419 228.972 62.5394 220.443 59.2656 218.483C51.1181 213.546 46.8695 211.151 43.9983 209.604C40.4172 207.676 39.1353 208.545 39.0293 209.721C39.0293 210.272 38.9446 210.95 38.9446 211.745L39.0611 239.058ZM4.48991 223.41L31.4433 238.974H31.4963L31.8248 239.164C34.59 240.764 34.8019 237.405 34.8019 234.513C34.8019 227.192 34.8019 220.401 34.8019 211.745C34.9609 207.168 33.7424 203.099 30.0554 202.082C22.0245 199.836 16.1125 199.772 6.79959 207.178C0.506218 212.253 0.156593 220.93 4.45812 223.41H4.48991Z" fill="#263238"/>
<path d="M56.7781 253.574L56.576 253.467C56.7887 253.638 56.8206 253.648 56.7781 253.574Z" fill="#263238"/>
<path d="M53.2808 251.603L54.4568 252.281L53.9483 251.984L53.2808 251.603Z" fill="#263238"/>
<path d="M56.7201 253.573L56.3287 253.34L56.1912 253.266L56.7412 253.583L56.7201 253.573Z" fill="#263238"/>
<path d="M55.337 252.789L54.9768 252.577L54.6907 252.418L55.8032 253.054L56.2693 253.329L55.9091 253.118L55.8032 253.054L55.337 252.789Z" fill="#263238"/>
<path opacity="0.5" d="M39.0562 239.057C38.9474 240.331 39.2171 241.609 39.8316 242.731C40.446 243.852 41.3778 244.767 42.5102 245.361L42.6691 245.457L42.881 245.584C46.0065 247.512 51.9714 250.977 56.6544 253.541L56.7709 253.604L57.0252 253.753L57.3748 253.954C73.5321 262.769 95.3787 275.864 95.5165 275.928C92.294 264.467 87.9908 253.339 82.6649 242.691C75.9371 228.971 62.5345 220.442 59.2607 218.482C51.1132 213.545 46.8647 211.15 43.9935 209.604C40.4124 207.675 39.1304 208.544 39.0244 209.72C39.0244 210.271 38.9397 210.949 38.9397 211.744L39.0562 239.057Z" fill="black"/>
<path opacity="0.5" d="M4.45927 223.41L31.4127 238.974H31.4657L31.7941 239.164C34.5594 240.764 34.7713 237.406 34.7713 234.513C34.7713 227.192 34.7713 220.401 34.7713 211.745C34.9302 207.168 33.7118 203.099 30.0248 202.082C21.9938 199.836 16.0819 199.772 6.76895 207.178C0.507359 212.253 0.157738 220.93 4.45927 223.41Z" fill="black"/>
<path d="M-5.00305 206.246C6.51361 191.106 23.0311 173.158 69.0129 150.093C114.995 127.028 123.269 124.782 147.966 136.563C161.263 142.454 189.096 155.454 197.561 164.534C196.488 164.336 195.391 164.303 194.308 164.438C178.321 168.782 96.6339 218.833 83.1571 227.817C82.9224 227.448 82.6641 227.094 82.3837 226.758C73.2615 214.679 34.5265 194.75 34.5265 194.75C22.8086 188.902 6.46063 193.935 -5.10899 206.256L-5.00305 206.246Z" fill="#12B76A"/>
<path opacity="0.5" d="M-5.00305 206.246C6.51361 191.106 23.0311 173.158 69.0129 150.093C114.995 127.028 123.269 124.782 147.966 136.563C161.263 142.454 189.096 155.454 197.561 164.534C196.488 164.336 195.391 164.303 194.308 164.438C178.321 168.782 96.6339 218.833 83.1571 227.817C82.9224 227.448 82.6641 227.094 82.3837 226.758C73.2615 214.679 34.5265 194.75 34.5265 194.75C22.8086 188.902 6.46063 193.935 -5.10899 206.256L-5.00305 206.246Z" fill="white"/>
<path d="M171.751 242.596C202.815 224.468 235.659 213.831 235.723 213.82C234.833 217.179 234.271 224.086 228.72 231.408C224.482 237.076 219.068 243.242 212.478 247.66C196.924 258.52 181.212 265.958 175.872 269.147C149.12 283.651 115.481 288.366 110.978 283.026C110.978 283.026 147.022 257.015 171.751 242.596Z" fill="#455A64"/>
<path d="M110.978 283.026C112.25 282.231 154.545 256.157 174.092 244.408C192.697 233.219 231.061 215.928 235.723 213.82C213.467 221.188 192.029 230.831 171.751 242.596C150.826 255.042 130.543 268.536 110.978 283.026Z" fill="#37474F"/>
<path d="M96.9208 347.233L139.353 322.726L115.78 309.112L96.9208 320.046V347.233Z" fill="#12B76A"/>
<path opacity="0.35" d="M96.9208 347.233L139.353 322.726L115.78 309.112L96.9208 320.046V347.233Z" fill="black"/>
<path d="M114.395 341.141L108.292 329.042L122.765 320.64C127.384 317.991 133.518 318.288 140.267 322.187C154.592 330.461 166.204 351.789 166.204 369.864C166.204 379.314 163.025 385.979 157.929 388.998L157.728 389.115L142.895 397.697L136.464 384.983C124.258 375.606 114.861 357.235 114.395 341.141Z" fill="#37474F"/>
<path d="M114.395 341.141L108.292 329.042L122.765 320.64C127.384 317.991 133.518 318.288 140.267 322.187C154.592 330.461 166.204 351.789 166.204 369.864C166.204 379.314 163.025 385.979 157.929 388.998L157.728 389.115L142.895 397.697L136.464 384.983C124.258 375.606 114.861 357.235 114.395 341.141Z" fill="#263238"/>
<path d="M99.2695 348.588C99.2695 364.142 107.904 382.153 119.463 392.112C119.481 392.108 119.499 392.108 119.516 392.112C121.284 393.644 123.188 395.009 125.206 396.191C139.53 404.466 151.153 396.541 151.132 378.498C151.132 364.873 144.51 349.351 135.091 339.021L135.017 338.936C132.173 335.762 128.865 333.037 125.206 330.853C110.882 322.631 99.2695 330.545 99.2695 348.588Z" fill="#37474F"/>
<path d="M125.206 341.787C116.084 336.489 108.699 342.009 108.699 354.034C108.699 366.059 116.115 380.087 125.206 385.342C134.296 390.597 141.713 385.12 141.713 373.094C141.713 361.069 134.318 347.052 125.206 341.787Z" fill="#455A64"/>
<path d="M117.753 360.244C118.378 366.219 122.235 372.566 126.346 374.398C127.047 374.792 127.849 374.966 128.65 374.898C129.451 374.83 130.213 374.523 130.838 374.017C132.279 372.777 133.02 370.256 132.671 366.897C132.035 360.911 128.2 354.565 124.078 352.732C123.145 352.265 122.081 352.126 121.059 352.34C118.675 352.923 117.298 355.889 117.753 360.244Z" fill="#FAFAFA"/>
<path d="M119.226 359.522C119.851 365.497 123.697 371.844 127.818 373.677C128.753 374.141 129.816 374.279 130.838 374.069C132.279 372.829 133.02 370.307 132.671 366.949C132.035 360.963 128.2 354.616 124.078 352.783C123.145 352.316 122.081 352.178 121.059 352.391C119.586 353.589 118.876 356.121 119.226 359.522Z" fill="#E0E0E0"/>
<path d="M99.2718 348.587C99.2718 364.141 107.907 382.152 119.466 392.111C112.621 384.695 105.523 372.182 103.022 360.274C100.829 349.88 101.645 334.952 110.577 331.18C119.508 327.408 131.29 335.354 135.019 338.978C132.175 335.804 128.868 333.078 125.208 330.894C110.884 322.63 99.2718 330.544 99.2718 348.587Z" fill="#455A64"/>
<path d="M98.7322 283.588C98.7322 283.588 106.657 284.16 109.687 285.156C112.4 286.046 141.101 285.156 169.496 272.697C186.447 265.28 199.405 259.125 213.856 246.697C232.705 230.508 235.205 219.659 237.102 215.272C244.899 220.814 255.431 228.463 261.47 233.135C275.37 244.694 292.291 261.742 298.986 280.675C299.442 281.957 299.855 283.249 300.205 284.542C310.111 320.639 301.625 333.935 293.128 344.933C289.515 349.626 279.481 358.759 266.969 366.218C256.695 372.252 246.083 377.689 235.184 382.502C228.778 385.337 222.125 387.575 215.308 389.188C180.917 396.774 157.841 382.322 157.841 382.322C158.018 380.411 157.996 378.487 157.778 376.58C157.485 374.021 157.028 371.484 156.411 368.983C154.812 362.519 152.372 356.293 149.153 350.463C144.248 341.532 137.69 333.702 130.39 328.638C129.436 327.96 128.461 327.345 127.487 326.784C111.7 317.662 98.6898 325.004 97.0158 343.11C96.8887 344.424 96.9099 345.77 96.9099 347.189L96.0941 330.545L96.8357 286.163C96.8357 286.163 99.3043 285.728 98.7322 283.588Z" fill="#12B76A"/>
<path opacity="0.2" d="M237.016 228.346C216.017 260.205 174.326 282.867 127.03 291.915C124.159 292.466 123.014 295.02 125.462 296.619C129.816 299.459 137.169 300.984 146.482 299.194C189.052 286.734 218.528 270.588 238.584 247.48C240.501 245.266 243.108 241.282 243.881 238.453C244.941 234.48 244.792 230.634 243.373 227.71C242.059 225.051 238.626 225.898 237.016 228.346Z" fill="black"/>
<path d="M257.156 321.942C252.336 324.475 243.542 315.967 239.145 312.555C234.748 309.144 244.834 300.117 250.429 301.452C258.269 303.37 261.415 319.696 257.156 321.942Z" fill="#455A64"/>
<path d="M235.195 382.545C231.125 384.355 226.95 385.919 222.693 387.228C227.831 385.183 223.498 375.012 227.354 371.23C231.391 367.278 244.306 361.26 259.944 352.233C275.582 343.206 286.124 333.417 288.551 336.447C292.789 341.882 296.19 340.876 296.211 340.865C295.215 342.295 294.198 343.651 293.181 344.976C289.568 349.669 279.534 358.802 267.022 366.261C256.734 372.296 246.108 377.733 235.195 382.545Z" fill="#455A64"/>
<g opacity="0.2">
<path d="M240.753 217.91C249.483 226.799 257.419 236.557 263.373 247.48C269.397 258.343 273.473 270.176 275.419 282.443C276.483 288.536 276.979 294.715 276.903 300.9C276.861 307.038 275.661 313.113 273.364 318.805C273.1 319.515 272.785 320.206 272.421 320.871C272.061 321.549 271.732 322.227 271.362 322.884C270.585 324.185 269.725 325.435 268.787 326.624C267.86 327.833 266.859 328.983 265.789 330.067C264.681 331.101 263.517 332.074 262.303 332.981C259.819 334.772 257.189 336.353 254.442 337.706C251.687 339.108 248.857 340.356 245.966 341.446C244.546 342.029 243.073 342.442 241.611 342.908C240.88 343.12 240.138 343.29 239.397 343.481L238.284 343.756L237.161 343.947C234.168 344.525 231.117 344.756 228.071 344.635C221.934 344.304 215.892 342.984 210.176 340.726C207.294 339.666 204.444 338.416 201.562 337.177L192.938 333.532C187.175 331.116 181.347 328.828 175.435 326.772C169.523 324.717 163.58 322.789 157.615 320.956C151.65 319.123 145.674 317.406 139.932 315.012C134.15 312.74 128.685 309.734 123.669 306.07C118.636 302.373 114.471 297.622 111.463 292.148C114.289 297.774 118.34 302.694 123.319 306.547C128.297 310.376 133.745 313.552 139.529 315.997C145.314 318.383 151.216 320.473 157.212 322.259C163.145 324.187 169.047 326.168 174.884 328.33C180.722 330.491 186.539 332.833 192.228 335.248L200.821 338.935C203.671 340.175 206.553 341.436 209.498 342.559C215.401 344.925 221.648 346.32 227.997 346.691C231.19 346.829 234.389 346.605 237.532 346.023L238.708 345.822L239.874 345.536C240.647 345.345 241.42 345.176 242.194 344.964C243.709 344.476 245.245 344.053 246.707 343.459C249.661 342.328 252.547 341.03 255.353 339.571C258.198 338.157 260.917 336.502 263.479 334.623C264.762 333.662 265.989 332.629 267.155 331.529C268.287 330.391 269.349 329.184 270.334 327.917C271.316 326.65 272.219 325.323 273.036 323.944C273.428 323.244 273.777 322.524 274.095 321.825C274.474 321.12 274.807 320.39 275.091 319.642C277.443 313.716 278.661 307.402 278.683 301.027C278.762 294.704 278.204 288.39 277.019 282.178C274.875 269.779 270.572 257.852 264.305 246.94C257.888 236.183 249.956 226.406 240.753 217.91Z" fill="black"/>
</g>
<path opacity="0.5" d="M195.113 263.014C195.113 263.014 226.898 245.246 238.648 217.212C238.648 217.212 252.252 230.021 260.696 246.995C266.44 258.578 270.609 270.879 273.092 283.568C273.092 283.568 266.057 256.297 254.074 239.525C242.833 223.781 240.099 219.914 233.647 230.223C228.71 238.137 212.733 257.272 195.113 263.014Z" fill="white"/>
<path opacity="0.5" d="M145.784 315.128C153.667 317.067 168.553 320.765 180.917 325.723C193.281 330.682 208.887 340.355 225.023 342.135C241.159 343.915 257.317 334.252 257.317 334.252C257.317 334.252 240.767 341.881 225.468 339.783C210.169 337.685 195.421 328.361 180.196 322.958C164.971 317.555 145.784 315.128 145.784 315.128Z" fill="white"/>
<path d="M167.374 367.129C168.879 366.918 172.672 367.924 179.029 369.757C185.386 371.59 186.943 371.759 189.306 373.391C191.308 374.768 196.648 379.123 199.222 380.447C203.312 382.566 199.222 384.081 187.791 384.092C176.359 384.102 172.492 380.68 169.864 377.173C167.236 373.666 163.941 367.606 167.374 367.129Z" fill="#455A64"/>
<path d="M301.487 305.012C301.827 307.084 302.039 309.175 302.122 311.273C302.191 315.411 301.394 319.518 299.781 323.33C299.283 324.496 298.414 325.82 297.143 325.703C296.645 325.65 297.694 308.296 297.937 306.633C298.181 304.969 298.372 303.518 298.594 301.96C298.679 301.388 298.891 300.678 299.463 300.625C300.416 300.498 301.063 302.617 301.487 305.012Z" fill="#455A64"/>
<path d="M283.359 289.712C282.215 284.86 282.299 276.797 282.087 271.838C282.018 267.159 281.475 262.498 280.466 257.927C279.863 254.834 279.407 252.291 280.36 251.189C288.232 260.004 295.193 270.059 298.997 280.675C299.452 281.957 299.866 283.249 300.215 284.542C300.565 285.834 300.872 287 301.179 288.197C300.448 291.905 297.153 297.001 292.809 297.457C287.787 297.966 284.514 294.575 283.359 289.712Z" fill="#455A64"/>
<path d="M285.277 253.573C284.44 252.886 283.366 252.559 282.289 252.661C281.229 252.81 281.685 254.42 281.918 255.098C282.331 256.306 282.734 257.524 283.147 258.743C283.454 259.633 283.634 260.766 284.81 260.862C286.262 260.925 287.025 259.188 287.279 258.012C287.383 257.159 287.252 256.295 286.899 255.512C286.546 254.729 285.984 254.058 285.277 253.573Z" fill="#12B76A"/>
<path opacity="0.65" d="M285.277 253.573C284.44 252.886 283.366 252.559 282.289 252.661C281.229 252.81 281.685 254.42 281.918 255.098C282.331 256.306 282.734 257.524 283.147 258.743C283.454 259.633 283.634 260.766 284.81 260.862C286.262 260.925 287.025 259.188 287.279 258.012C287.383 257.159 287.252 256.295 286.899 255.512C286.546 254.729 285.984 254.058 285.277 253.573Z" fill="white"/>
<path d="M295.288 294.204C294.288 294.892 293.071 295.189 291.867 295.036C290.663 294.884 289.557 294.293 288.761 293.378C287.467 292.023 286.519 290.377 285.996 288.578C283.421 280.918 284.65 272.569 285.996 264.602C286.066 263.672 286.409 262.784 286.981 262.048C288.931 260.004 292.342 263.68 293.582 264.983C295.589 267.098 297.2 269.556 298.339 272.241C299.896 275.917 301.359 281.278 300.543 285.304C299.875 288.451 298.117 292.424 295.288 294.204Z" fill="#12B76A"/>
<path opacity="0.65" d="M295.288 294.204C294.288 294.892 293.071 295.189 291.867 295.036C290.663 294.884 289.557 294.293 288.761 293.378C287.467 292.023 286.519 290.377 285.996 288.578C283.421 280.918 284.65 272.569 285.996 264.602C286.066 263.672 286.409 262.784 286.981 262.048C288.931 260.004 292.342 263.68 293.582 264.983C295.589 267.098 297.2 269.556 298.339 272.241C299.896 275.917 301.359 281.278 300.543 285.304C299.875 288.451 298.117 292.424 295.288 294.204Z" fill="white"/>
<path opacity="0.45" d="M292.858 267.928C294.338 269.719 295.199 271.939 295.313 274.259C295.428 276.579 294.79 278.873 293.494 280.801C293.259 281.207 292.942 281.559 292.562 281.835C292.183 282.111 291.749 282.303 291.29 282.401C290.804 282.422 290.321 282.308 289.896 282.07C289.472 281.832 289.121 281.481 288.885 281.055C288.421 280.198 288.146 279.252 288.08 278.279C287.773 275.305 287.709 272.311 287.889 269.327C288.038 265.65 290.708 265.449 292.858 267.928Z" fill="white"/>
<path d="M192.687 339.327C187.389 334.846 179.21 331.031 165.553 329.686C153.401 328.499 142.573 322.916 142.244 328.987C141.916 335.057 151.557 353.291 169.24 359.415C184.486 364.713 194.191 360.57 197.444 355.442C200.696 350.314 197.91 343.809 192.687 339.327Z" fill="#455A64"/>
<path d="M150.691 336.659C148.403 337.284 146.846 336.235 145.892 334.201C145.214 332.728 144.631 330.556 146.485 329.772C149.06 328.713 152.546 329.56 154.961 330.726C159.761 333.035 152.938 336.055 150.691 336.659Z" fill="#12B76A"/>
<path opacity="0.65" d="M150.691 336.659C148.403 337.284 146.846 336.235 145.892 334.201C145.214 332.728 144.631 330.556 146.485 329.772C149.06 328.713 152.546 329.56 154.961 330.726C159.761 333.035 152.938 336.055 150.691 336.659Z" fill="white"/>
<path d="M156.661 344.932C155.125 342.167 154.288 338.999 156.438 336.774C158.589 334.549 162.795 333.84 165.772 333.596C174.931 332.773 184.044 335.602 191.126 341.468C192.783 342.758 194.173 344.36 195.216 346.183C195.733 347.094 196.064 348.099 196.192 349.139C196.319 350.179 196.239 351.234 195.957 352.243C192.938 361.535 178.571 360.104 171.589 357.466C167.029 355.739 162.968 352.911 159.765 349.234C158.583 347.912 157.543 346.471 156.661 344.932Z" fill="#12B76A"/>
<path opacity="0.65" d="M156.661 344.932C155.125 342.167 154.288 338.999 156.438 336.774C158.589 334.549 162.795 333.84 165.772 333.596C174.931 332.773 184.044 335.602 191.126 341.468C192.783 342.758 194.173 344.36 195.216 346.183C195.733 347.094 196.064 348.099 196.192 349.139C196.319 350.179 196.239 351.234 195.957 352.243C192.938 361.535 178.571 360.104 171.589 357.466C167.029 355.739 162.968 352.911 159.765 349.234C158.583 347.912 157.543 346.471 156.661 344.932Z" fill="white"/>
<path opacity="0.45" d="M172.99 335.704C174.983 336.098 176.932 336.691 178.807 337.473C180.926 338.342 183.045 340.09 182.833 342.347C182.388 347.2 173.213 349.477 169.282 349.297C167.253 349.246 165.273 348.666 163.537 347.614C161.802 346.562 160.371 345.075 159.386 343.301C155.011 334.464 168.466 334.952 172.99 335.704Z" fill="white"/>
<path d="M194.362 164.47C212.882 180.362 222.83 192.016 236.688 211.426C239.464 216.226 231.041 234.481 214.386 247.968C169.315 284.499 113.078 291.566 107.378 285.675C99.3574 257.175 91.0509 240.308 83.1895 227.848C96.6874 218.864 178.374 168.814 194.362 164.47ZM110.832 282.486C110.922 282.813 111.124 283.099 111.403 283.292C111.682 283.486 112.019 283.575 112.357 283.546C126.501 283.546 169.57 277.772 210.403 246.665C231.889 230.317 232.948 213.969 233.309 212.687C222.417 195.937 212.839 185.628 196.534 170.827C195.718 170.091 194.707 169.606 193.623 169.431C192.538 169.257 191.426 169.399 190.421 169.841C168.055 179.61 119.435 207.517 93.5195 226.217C92.3824 227.035 91.5849 228.242 91.2783 229.609C90.9717 230.976 91.1773 232.408 91.8561 233.633C101.942 251.846 105.63 264.337 110.832 282.486Z" fill="#37474F"/>
<path opacity="0.5" d="M110.827 282.487C110.917 282.814 111.119 283.099 111.398 283.293C111.677 283.486 112.014 283.576 112.353 283.547C126.497 283.547 169.565 277.772 210.398 246.666C231.884 230.318 232.944 213.97 233.304 212.688C222.412 195.937 212.835 185.628 196.529 170.827C195.713 170.091 194.702 169.607 193.618 169.432C192.533 169.257 191.421 169.4 190.416 169.842C168.05 179.611 119.43 207.517 93.5148 226.218C92.3776 227.036 91.5802 228.243 91.2736 229.61C90.967 230.977 91.1726 232.408 91.8514 233.634C101.938 251.847 105.625 264.338 110.827 282.487Z" fill="black"/>
<path d="M82.2998 286.937C84.2704 296.292 94.6216 298.263 102.377 298.029C106.488 297.913 109.868 297.161 110.853 296.567C113.851 294.84 112.463 291.27 110.853 289.151C108.141 285.633 95.946 278.556 88.2965 278.334C83.8678 278.196 80.933 280.378 82.2998 286.937Z" fill="#12B76A"/>
<path opacity="0.3" d="M82.2998 286.937C84.2704 296.292 94.6216 298.263 102.377 298.029C106.488 297.913 109.868 297.161 110.853 296.567C113.851 294.84 112.463 291.27 110.853 289.151C108.141 285.633 95.946 278.556 88.2965 278.334C83.8678 278.196 80.933 280.378 82.2998 286.937Z" fill="black"/>
<path d="M82.2998 286.937C84.2704 296.292 94.6216 298.263 102.377 298.029C106.488 297.913 109.868 297.161 110.853 296.567C113.851 294.84 112.463 291.27 110.853 289.151C112.368 292.001 104.38 293.77 97.2598 291.217C90.14 288.664 84.8425 283.154 88.2965 278.334C83.8678 278.196 80.933 280.378 82.2998 286.937Z" fill="#12B76A"/>
<path opacity="0.35" d="M82.2998 286.937C84.2704 296.292 94.6216 298.263 102.377 298.029C106.488 297.913 109.868 297.161 110.853 296.567C113.851 294.84 112.463 291.27 110.853 289.151C112.368 292.001 104.38 293.77 97.2598 291.217C90.14 288.664 84.8425 283.154 88.2965 278.334C83.8678 278.196 80.933 280.378 82.2998 286.937Z" fill="black"/>
<path d="M82.3008 286.936C84.2715 296.292 94.6227 298.262 102.378 298.029C94.6545 297.807 88.5094 293.357 86.1786 288.494C83.8477 283.631 85.6276 278.958 88.2975 278.344C83.8689 278.196 80.9341 280.378 82.3008 286.936Z" fill="#37474F"/>
<path d="M364.526 155.481C364.857 155.265 365.229 155.118 365.619 155.049C366.008 154.98 366.408 154.99 366.793 155.079C366.793 155.079 367.312 155.365 367.62 155.577C368.542 156.262 369.223 157.224 369.562 158.322C369.902 159.42 369.884 160.597 369.51 161.684C369.136 162.771 368.425 163.71 367.482 164.367C366.538 165.023 365.41 165.362 364.261 165.335C363.47 165.318 362.694 165.119 361.994 164.752L361.263 164.328C360.993 164.024 360.79 163.668 360.666 163.281C360.542 162.894 360.5 162.486 360.542 162.082C360.649 160.748 361.064 159.457 361.755 158.312C362.447 157.166 363.395 156.197 364.526 155.481Z" fill="#12B76A"/>
<path d="M249.518 314.458C250.885 316.344 252.993 317.266 253.925 316.577C254.405 316.263 254.816 315.854 255.133 315.377C255.45 314.899 255.668 314.362 255.771 313.798C255.875 313.234 255.863 312.655 255.736 312.096C255.61 311.537 255.371 311.009 255.034 310.545C254.698 310.08 254.271 309.689 253.779 309.395C253.286 309.101 252.74 308.909 252.171 308.832C251.603 308.755 251.025 308.795 250.473 308.947C249.92 309.1 249.404 309.364 248.956 309.722C248.162 310.474 248.141 312.561 249.518 314.458Z" fill="#263238"/>
<path d="M310.173 404.472C316.374 404.388 322.443 402.663 327.76 399.471C334.319 395.689 338.355 390.423 339.764 383.823C341.947 373.598 337.158 362.283 332.401 355.693L331.045 353.828C322.643 342.238 318.013 335.817 319.655 329.238C321.615 321.313 347.711 322.383 375.12 324.502L382.536 325.074C400.208 326.398 426.367 323.294 428.857 315.21C429.811 312.127 427.469 308.927 421.886 305.675C400.346 293.268 381.731 282.535 381.731 259.417C381.731 231.531 381.922 216.656 382.07 205.807C382.144 199.715 382.208 190.974 382.208 185.889C382.208 171.522 368.307 161.086 367.714 160.651C367.488 160.483 367.204 160.411 366.925 160.452C366.645 160.492 366.394 160.642 366.225 160.869C366.057 161.095 365.985 161.379 366.026 161.658C366.066 161.937 366.216 162.189 366.442 162.357C366.57 162.453 380.067 172.603 380.067 185.889C380.067 190.932 380.004 199.662 379.93 205.775C379.781 216.635 379.591 231.51 379.591 259.417C379.591 283.785 399.594 295.313 420.784 307.539C423.962 309.372 427.564 312.074 426.791 314.585C425.043 320.253 402.772 324.47 382.653 322.955L375.236 322.393C346.63 320.179 319.941 319.066 317.547 328.75C315.672 336.326 320.503 342.99 329.275 355.089L330.632 356.964C335.134 363.194 339.68 373.853 337.645 383.399C336.363 389.395 332.666 394.195 326.648 397.659C313.161 405.447 300.267 402.586 293.475 396.293C287.754 390.995 285.201 382.519 285.201 368.746C285.201 366.627 285.201 364.37 285.201 362.092C285.275 352.96 285.349 343.52 284.364 335.213C283.304 325.974 279.458 318.484 273.673 314.108C268.44 310.156 261.754 308.811 253.808 310.061C253.669 310.083 253.535 310.133 253.415 310.206C253.295 310.28 253.191 310.377 253.108 310.491C253.026 310.605 252.966 310.734 252.934 310.871C252.901 311.009 252.896 311.151 252.918 311.29C252.94 311.429 252.99 311.562 253.064 311.682C253.137 311.802 253.234 311.907 253.348 311.989C253.462 312.072 253.592 312.131 253.729 312.164C253.866 312.197 254.008 312.202 254.147 312.18C261.5 311.004 267.634 312.233 272.391 315.835C279.585 321.26 281.662 330.477 282.255 335.489C283.23 343.668 283.156 353.044 283.082 362.114C283.082 364.391 283.082 366.627 283.082 368.778C283.082 383.166 285.847 392.14 292.034 397.871C297.043 402.262 303.514 404.617 310.173 404.472Z" fill="#37474F"/>
<path d="M144.944 112.19L150.92 101.001L146.11 87.1222V78.6462L160.826 87.1222V95.5981L154.469 106.553C154.372 106.726 154.218 106.86 154.035 106.935L144.944 112.19Z" fill="#12B76A"/>
<path opacity="0.2" d="M144.944 112.19L150.92 101.001L146.11 87.1222V78.6462L160.826 87.1222V95.5981L154.469 106.553C154.372 106.726 154.218 106.86 154.035 106.935L144.944 112.19Z" fill="black"/>
<path d="M109.799 11.0306C109.881 9.49887 110.323 8.00797 111.089 6.67889C111.854 5.3498 112.923 4.21997 114.207 3.38108L117.799 1.2621C119.167 0.57275 120.679 0.213684 122.211 0.213684C123.744 0.213684 125.255 0.57275 126.624 1.2621L181.718 33.1951C183.003 34.0335 184.073 35.1629 184.841 36.492C185.608 37.821 186.052 39.3122 186.136 40.8447V101.458C186.052 102.991 185.608 104.482 184.841 105.811C184.073 107.14 183.003 108.269 181.718 109.108L178.126 111.227C176.759 111.922 175.247 112.284 173.713 112.284C172.18 112.284 170.668 111.922 169.3 111.227L151.586 100.992L145.229 111.926C145.139 112.082 145.005 112.209 144.845 112.292C144.685 112.374 144.505 112.409 144.325 112.393C144.146 112.376 143.975 112.308 143.832 112.197C143.69 112.086 143.583 111.937 143.523 111.767L136.848 92.5054L114.165 79.3677C112.879 78.5294 111.809 77.3999 111.041 76.0709C110.274 74.7419 109.83 73.2507 109.746 71.7182L109.799 11.0306Z" fill="#12B76A"/>
<path opacity="0.2" d="M186.136 101.437C186.052 102.97 185.608 104.461 184.841 105.79C184.073 107.119 183.003 108.249 181.718 109.087L178.126 111.206C176.882 111.832 175.519 112.189 174.128 112.251C172.736 112.313 171.348 112.079 170.053 111.566C172.172 112.35 173.719 111.174 173.719 108.663V48.0284C173.665 46.494 173.22 44.9988 172.426 43.6845L184.843 36.4694C185.636 37.7881 186.08 39.2864 186.136 40.8239V101.437Z" fill="black"/>
<path opacity="0.5" d="M109.935 9.77046C110.454 7.89516 112.16 7.30185 114.173 8.47788L169.267 40.3474C170.576 41.153 171.651 42.2894 172.382 43.6424L184.82 36.4802C184.089 35.134 183.019 34.0019 181.716 33.1958L126.622 1.32632C125.252 0.636863 123.739 0.277771 122.204 0.277771C120.67 0.277771 119.157 0.636863 117.786 1.32632L114.184 3.4453C113.087 4.16027 112.146 5.08882 111.416 6.17554C110.686 7.26226 110.182 8.48489 109.935 9.77046Z" fill="white"/>
<path d="M117.652 28.2162C121.276 36.6921 116.805 49.745 119.994 60.1598C123.183 70.5746 128.957 75.1516 135.198 74.3464C135.929 62.692 132.273 50.7621 126.234 40.9619C131.987 46.7996 139.711 56.5046 138.058 73.9968C142.805 71.9414 147.149 62.692 142.084 51.3237C135.134 35.6962 117.652 28.2162 117.652 28.2162Z" fill="white"/>
<path d="M155.761 41.3851L166.779 70.6058L157.318 72.2268L160.264 95.7475L148.789 65.4991L158.229 63.4437L155.761 41.3851Z" fill="white"/>
</svg>
