<svg width="430" height="361" viewBox="0 0 430 361" fill="none" xmlns="http://www.w3.org/2000/svg">
<path d="M-1.04742 318.468H521.156V318.729H-1.04742V318.468Z" fill="#EBEBEB"/>
<path d="M51.286 335.276H78.4406V335.537H51.286V335.276Z" fill="#EBEBEB"/>
<path d="M149.314 338.112H196.344V338.373H149.314V338.112Z" fill="#EBEBEB"/>
<path d="M79.476 325.582H142.966V325.843H79.476V325.582Z" fill="#EBEBEB"/>
<path d="M379.227 327.337H436.972V327.598H379.227V327.337Z" fill="#EBEBEB"/>
<path d="M266.176 331.746H343.953V332.007H266.176V331.746Z" fill="#EBEBEB"/>
<path d="M417.174 209.351H439.316V318.47H417.174V209.351Z" fill="#FAFAFA"/>
<path d="M402.452 120.867H424.594V318.469H402.452V120.867Z" fill="#FAFAFA"/>
<path d="M347.693 136.252H407.109V318.47H347.693V136.252Z" fill="#FAFAFA"/>
<path d="M116.674 318.468H91.3781V266.018H116.674V318.468Z" fill="#FAFAFA"/>
<path d="M138.839 318.468H113.544V277.527H138.839V318.468Z" fill="#FAFAFA"/>
<path d="M155.008 318.468H129.713V243.782H155.008V318.468Z" fill="#FAFAFA"/>
<path d="M171.821 318.468H146.525L146.525 183.228H171.821L171.821 318.468Z" fill="#FAFAFA"/>
<path d="M158.219 153.254H235.85V318.469H158.219V153.254Z" fill="#F0F0F0"/>
<path d="M165.622 160.179H169.319V180.284H165.622V160.179Z" fill="#F5F5F5"/>
<path d="M165.622 191.627H169.319V211.732H165.622V191.627Z" fill="#F5F5F5"/>
<path d="M165.622 223.062H169.319V243.167H165.622V223.062Z" fill="#F5F5F5"/>
<path d="M165.622 254.501H169.319V274.606H165.622V254.501Z" fill="#F5F5F5"/>
<path d="M165.622 285.946H169.319V306.051H165.622V285.946Z" fill="#F5F5F5"/>
<path d="M178.715 160.179H182.412V180.284H178.715V160.179Z" fill="#F5F5F5"/>
<path d="M178.715 191.627H182.412V211.732H178.715V191.627Z" fill="#F5F5F5"/>
<path d="M178.715 223.062H182.412V243.167H178.715V223.062Z" fill="#F5F5F5"/>
<path d="M178.715 254.501H182.412V274.606H178.715V254.501Z" fill="#F5F5F5"/>
<path d="M178.715 285.946H182.412V306.051H178.715V285.946Z" fill="#F5F5F5"/>
<path d="M191.812 160.179H195.509V180.284H191.812V160.179Z" fill="#F5F5F5"/>
<path d="M191.812 191.627H195.509V211.732H191.812V191.627Z" fill="#F5F5F5"/>
<path d="M191.812 223.062H195.509V243.167H191.812V223.062Z" fill="#F5F5F5"/>
<path d="M191.812 254.501H195.509V274.606H191.812V254.501Z" fill="#F5F5F5"/>
<path d="M191.812 285.946H195.509V306.051H191.812V285.946Z" fill="#F5F5F5"/>
<path d="M204.912 160.179H208.609V180.284H204.912V160.179Z" fill="#F5F5F5"/>
<path d="M204.912 191.627H208.609V211.732H204.912V191.627Z" fill="#F5F5F5"/>
<path d="M204.912 223.062H208.609V243.167H204.912V223.062Z" fill="#F5F5F5"/>
<path d="M204.912 254.501H208.609V274.606H204.912V254.501Z" fill="#F5F5F5"/>
<path d="M204.912 285.946H208.609V306.051H204.912V285.946Z" fill="#F5F5F5"/>
<path d="M218.018 160.179H221.716V180.284H218.018V160.179Z" fill="#F5F5F5"/>
<path d="M218.018 191.627H221.716V211.732H218.018V191.627Z" fill="#F5F5F5"/>
<path d="M218.018 223.062H221.716V243.167H218.018V223.062Z" fill="#F5F5F5"/>
<path d="M218.018 254.501H221.716V274.606H218.018V254.501Z" fill="#F5F5F5"/>
<path d="M218.018 285.946H221.716V306.051H218.018V285.946Z" fill="#F5F5F5"/>
<path opacity="0.5" d="M235.85 153.254H219.86L212.904 318.469H235.85V153.254Z" fill="#E0E0E0"/>
<path d="M274.019 89.4203L227.981 98.1306V318.469H274.019V89.4203Z" fill="#F0F0F0"/>
<path d="M274.02 89.4203H310.856V318.469H274.02V89.4203Z" fill="#E6E6E6"/>
<path d="M310.852 109.577L227.978 109.577V108.408L310.852 108.408V109.577Z" fill="#E0E0E0"/>
<path d="M310.852 122.048L227.978 122.048V120.878L310.852 120.878V122.048Z" fill="#E0E0E0"/>
<path d="M310.852 134.52H227.978V133.35H310.852V134.52Z" fill="#E0E0E0"/>
<path d="M310.852 146.98H227.978V145.811H310.852V146.98Z" fill="#E0E0E0"/>
<path d="M310.852 159.457H227.978V158.287H310.852V159.457Z" fill="#E0E0E0"/>
<path d="M310.852 171.926H227.978V170.756H310.852V171.926Z" fill="#E0E0E0"/>
<path d="M310.852 184.399H227.978V183.229H310.852V184.399Z" fill="#E0E0E0"/>
<path d="M310.852 196.868H227.978V195.698H310.852V196.868Z" fill="#E0E0E0"/>
<path d="M310.852 209.351H227.978V208.181H310.852V209.351Z" fill="#E0E0E0"/>
<path d="M310.852 221.82H227.978V220.65H310.852V221.82Z" fill="#E0E0E0"/>
<path d="M310.852 234.29H227.978V233.12H310.852V234.29Z" fill="#E0E0E0"/>
<path d="M310.852 246.752H227.978V245.583H310.852V246.752Z" fill="#E0E0E0"/>
<path d="M310.852 259.234H227.978V258.064H310.852V259.234Z" fill="#E0E0E0"/>
<path d="M310.852 271.699H227.978V270.529H310.852V271.699Z" fill="#E0E0E0"/>
<path d="M310.852 284.17H227.978V283H310.852V284.17Z" fill="#E0E0E0"/>
<path d="M310.852 296.641H227.978V295.472H310.852V296.641Z" fill="#E0E0E0"/>
<path d="M310.852 309.121H227.978V307.951H310.852V309.121Z" fill="#E0E0E0"/>
<path d="M331.005 40.7406H369.512V318.469H331.005V40.7406Z" fill="#F0F0F0"/>
<path d="M331.005 40.7406H369.512L355.34 16.218H300.195L331.005 40.7406Z" fill="#FAFAFA"/>
<path d="M331 40.7406L300.19 16.218V318.469H331V40.7406Z" fill="#EBEBEB"/>
<path d="M300.195 53.6805H369.512V55.1635H300.195V53.6805Z" fill="#E0E0E0"/>
<path d="M300.195 69.3984H369.512V70.8815H300.195V69.3984Z" fill="#E0E0E0"/>
<path d="M300.195 85.1179H369.512V86.601H300.195V85.1179Z" fill="#E0E0E0"/>
<path d="M300.195 100.846H369.512V102.329H300.195V100.846Z" fill="#E0E0E0"/>
<path d="M300.195 116.565H369.512V118.048H300.195V116.565Z" fill="#E0E0E0"/>
<path d="M300.195 132.283H369.512V133.766H300.195V132.283Z" fill="#E0E0E0"/>
<path d="M300.195 147.999H369.512V149.482H300.195V147.999Z" fill="#E0E0E0"/>
<path d="M300.195 163.719H369.512V165.203H300.195V163.719Z" fill="#E0E0E0"/>
<path d="M300.195 179.435H369.512V180.918H300.195V179.435Z" fill="#E0E0E0"/>
<path d="M300.195 195.168H369.512V196.651H300.195V195.168Z" fill="#E0E0E0"/>
<path d="M300.195 210.887H369.512V212.37H300.195V210.887Z" fill="#E0E0E0"/>
<path d="M300.195 226.605H369.512V228.089H300.195V226.605Z" fill="#E0E0E0"/>
<path d="M300.195 242.323H369.512V243.806H300.195V242.323Z" fill="#E0E0E0"/>
<path d="M300.195 258.038H369.512V259.521H300.195V258.038Z" fill="#E0E0E0"/>
<path d="M300.195 273.757H369.512V275.24H300.195V273.757Z" fill="#E0E0E0"/>
<path d="M300.195 289.484H369.512V290.967H300.195V289.484Z" fill="#E0E0E0"/>
<path d="M300.195 305.205H369.512V306.688H300.195V305.205Z" fill="#E0E0E0"/>
<path d="M376.188 175.134H418.225V318.468H376.188V175.134Z" fill="#F0F0F0"/>
<path d="M403.209 182.541H409.956V205.55H403.209V182.541Z" fill="#E6E6E6"/>
<path d="M386.653 182.541H393.4V205.55H386.653V182.541Z" fill="#E6E6E6"/>
<path d="M403.209 212.335H409.956V235.343H403.209V212.335Z" fill="#E6E6E6"/>
<path d="M386.653 212.335H393.4V235.343H386.653V212.335Z" fill="#E6E6E6"/>
<path d="M403.209 242.124H409.956V265.132H403.209V242.124Z" fill="#E6E6E6"/>
<path d="M386.653 242.124H393.4V265.132H386.653V242.124Z" fill="#E6E6E6"/>
<path d="M403.209 271.918H409.956V294.926H403.209V271.918Z" fill="#E6E6E6"/>
<path d="M386.653 271.918H393.4V294.926H386.653V271.918Z" fill="#E6E6E6"/>
<path d="M376.198 175.135H418.225L408.366 165.202H366.328L376.198 175.135Z" fill="white"/>
<path d="M376.203 175.135L366.333 165.202L356.474 175.135V318.469H376.203V175.135Z" fill="#E6E6E6"/>
<path d="M181.344 360.691C69.5059 360.691 -21.1566 350.33 -21.1566 337.549C-21.1566 324.768 69.5059 314.407 181.344 314.407C293.181 314.407 383.844 324.768 383.844 337.549C383.844 350.33 293.181 360.691 181.344 360.691Z" fill="#F5F5F5"/>
<path d="M46.6568 0.429321H167.839C172.714 0.429321 176.666 4.38156 176.666 9.2569V278.237C176.666 283.112 172.714 287.064 167.839 287.064H46.6568C41.7815 287.064 37.8293 283.112 37.8293 278.237V9.2569C37.8293 4.38156 41.7815 0.429321 46.6568 0.429321Z" fill="#12B76A"/>
<path d="M52.1506 0.429321H173.333C178.208 0.429321 182.16 4.38156 182.16 9.2569V278.237C182.16 283.112 178.208 287.064 173.333 287.064H52.1506C47.2753 287.064 43.323 283.112 43.323 278.237V9.2569C43.323 4.38156 47.2753 0.429321 52.1506 0.429321Z" fill="#12B76A"/>
<path opacity="0.7" d="M52.1506 0.429321H173.333C178.208 0.429321 182.16 4.38156 182.16 9.2569V278.237C182.16 283.112 178.208 287.064 173.333 287.064H52.1506C47.2753 287.064 43.323 283.112 43.323 278.237V9.2569C43.323 4.38156 47.2753 0.429321 52.1506 0.429321Z" fill="white"/>
<g opacity="0.9">
<path d="M154.292 0.427734H161.809V287.063H154.292V0.427734Z" fill="white"/>
<path d="M74.7656 0.427734H79.3742V287.063H74.7656V0.427734Z" fill="white"/>
<path d="M182.159 62.6866V70.2029L43.3214 61.6034V54.0871L182.159 62.6866Z" fill="white"/>
<path d="M182.149 240.257V247.773H43.312V240.257H182.149Z" fill="white"/>
<path d="M182.159 100.213V104.308L43.3214 104.308V100.213L182.159 100.213Z" fill="white"/>
<path d="M182.159 197.107V205.716L43.3214 158.737V150.128L182.159 197.107Z" fill="white"/>
<path d="M133.502 0.427734H141.018L120.816 287.072H113.3L133.502 0.427734Z" fill="white"/>
</g>
<path d="M22.9136 317.77H204.588V261.142H44.4493L29.5038 273.288C27.438 274.965 25.7738 277.083 24.6334 279.486C23.493 281.89 22.9053 284.519 22.9136 287.179V317.77Z" fill="#12B76A"/>
<path opacity="0.5" d="M22.9136 317.77H204.588V261.142H44.4493L29.5038 273.288C27.438 274.965 25.7738 277.083 24.6334 279.486C23.493 281.89 22.9053 284.519 22.9136 287.179V317.77Z" fill="black"/>
<path d="M205.629 312.66C205.629 291.991 196.229 275.239 184.741 275.239H206.903C218.465 275.239 227.791 291.949 227.791 312.66C227.791 333.371 218.392 350.091 206.903 350.091H184.699C196.282 350.091 205.629 333.329 205.629 312.66Z" fill="#263238"/>
<path d="M184.708 350.081C173.149 350.081 163.778 333.327 163.778 312.66C163.778 291.993 173.149 275.239 184.708 275.239C196.268 275.239 205.638 291.993 205.638 312.66C205.638 333.327 196.268 350.081 184.708 350.081Z" fill="#263238"/>
<path d="M183.022 341.844C174.826 341.844 168.181 328.779 168.181 312.663C168.181 296.547 174.826 283.483 183.022 283.483C191.219 283.483 197.863 296.547 197.863 312.663C197.863 328.779 191.219 341.844 183.022 341.844Z" fill="white"/>
<path d="M326.273 312.66C326.273 291.991 316.873 275.239 305.385 275.239H327.547C339.109 275.239 348.435 291.949 348.435 312.66C348.435 333.371 339.036 350.091 327.547 350.091H305.343C316.905 350.091 326.273 333.329 326.273 312.66Z" fill="#263238"/>
<path d="M305.346 350.081C293.787 350.081 284.416 333.327 284.416 312.66C284.416 291.993 293.787 275.239 305.346 275.239C316.905 275.239 326.276 291.993 326.276 312.66C326.276 333.327 316.905 350.081 305.346 350.081Z" fill="#263238"/>
<path d="M62.201 312.66C62.201 291.991 52.8013 275.239 41.3128 275.239H63.4751C75.0263 275.239 84.3633 291.949 84.3633 312.66C84.3633 333.371 74.9636 350.091 63.4751 350.091H41.271C52.8222 350.091 62.201 333.329 62.201 312.66Z" fill="#263238"/>
<path d="M41.274 350.081C29.7147 350.081 20.3441 333.327 20.3441 312.66C20.3441 291.993 29.7147 275.239 41.274 275.239C52.8333 275.239 62.2039 291.993 62.2039 312.66C62.2039 333.327 52.8333 350.081 41.274 350.081Z" fill="#263238"/>
<path d="M39.5816 341.844C31.3851 341.844 24.7406 328.779 24.7406 312.663C24.7406 296.547 31.3851 283.483 39.5816 283.483C47.7781 283.483 54.4227 296.547 54.4227 312.663C54.4227 328.779 47.7781 341.844 39.5816 341.844Z" fill="white"/>
<path d="M230.362 323.108H257.214L258.718 321.646C260.263 320.098 262.359 319.226 264.546 319.223H331.66C333.846 319.226 335.943 320.098 337.487 321.646L338.406 322.555H340.85C342.749 322.555 344.629 322.179 346.383 321.451C348.136 320.722 349.728 319.653 351.068 318.307C352.407 316.961 353.467 315.364 354.187 313.607C354.907 311.85 355.273 309.968 355.263 308.069V285.979H202.968L215.083 312.319C216.2 315.478 218.27 318.212 221.007 320.144C223.743 322.076 227.012 323.112 230.362 323.108Z" fill="#12B76A"/>
<path opacity="0.2" d="M230.362 323.108H257.214L258.718 321.646C260.263 320.098 262.359 319.226 264.546 319.223H331.66C333.846 319.226 335.943 320.098 337.487 321.646L338.406 322.555H340.85C342.749 322.555 344.629 322.179 346.383 321.451C348.136 320.722 349.728 319.653 351.068 318.307C352.407 316.961 353.467 315.364 354.187 313.607C354.907 311.85 355.273 309.968 355.263 308.069V285.979H202.968L215.083 312.319C216.2 315.478 218.27 318.212 221.007 320.144C223.743 322.076 227.012 323.112 230.362 323.108Z" fill="black"/>
<path d="M71.8409 191.804C71.9332 191.806 72.024 191.781 72.102 191.731C72.1617 191.698 72.2141 191.653 72.2561 191.598C72.298 191.544 72.3287 191.482 72.3462 191.416C72.3638 191.35 72.3678 191.281 72.3582 191.213C72.3485 191.145 72.3253 191.08 72.29 191.021L64.9791 178.488C64.949 178.422 64.9053 178.362 64.8508 178.313C64.7962 178.265 64.7321 178.228 64.6625 178.206C64.5929 178.184 64.5194 178.176 64.4468 178.184C64.3741 178.192 64.3039 178.215 64.2408 178.252C64.1776 178.289 64.1228 178.338 64.08 178.397C64.0372 178.457 64.0073 178.524 63.9923 178.596C63.9772 178.667 63.9773 178.741 63.9926 178.812C64.0078 178.884 64.038 178.951 64.0809 179.01L71.3918 191.543C71.4373 191.622 71.5028 191.688 71.5816 191.734C71.6603 191.779 71.7497 191.804 71.8409 191.804Z" fill="#263238"/>
<path d="M33.2668 254.153V239.907C33.2668 232.419 44.1495 197.087 59.1159 190.465C74.0823 183.844 110.292 180.898 133.102 182.11C155.912 183.321 186.366 231.03 186.366 231.03L183.056 272.054C178.419 272.054 163.651 270.655 161.489 311.24C161.344 314.102 160.104 316.797 158.025 318.769C155.946 320.741 153.189 321.837 150.324 321.831H70.4686C67.786 321.829 65.1945 320.857 63.1717 319.095C61.1488 317.333 59.8308 314.9 59.4605 312.243C57.3717 297.778 51.9199 272.023 38.7708 272.023C29.5487 272.023 22.9376 279.919 22.9376 288.974C22.9351 279.026 25.3509 269.226 29.9769 260.42L33.2668 254.153Z" fill="#12B76A"/>
<path d="M216.657 182.114C258.193 182.114 305.254 231.034 305.254 231.034H186.327C186.327 231.034 155.904 183.336 133.062 182.114H216.657Z" fill="#12B76A"/>
<path opacity="0.5" d="M214.112 182.114C249.1 182.114 285.8 216.83 296.506 227.765C296.772 228.035 296.952 228.379 297.023 228.751C297.094 229.124 297.053 229.509 296.906 229.859C296.759 230.209 296.511 230.507 296.194 230.716C295.878 230.925 295.506 231.036 295.127 231.034H199.188C195.326 231.045 191.517 230.144 188.069 228.406C184.62 226.667 181.631 224.14 179.344 221.028C169.025 206.971 149.15 182.981 133.066 182.114H214.112Z" fill="#263238"/>
<path d="M186.33 231.029L230.258 265.693L348.475 265.317C348.475 265.317 355.263 275.187 355.263 285.976H202.968C200.472 279.365 191.72 272.054 183.02 272.054C183.02 259.751 186.33 231.029 186.33 231.029Z" fill="#12B76A"/>
<path opacity="0.2" d="M215.078 255.482C215.203 255.48 215.324 255.434 215.417 255.352C215.511 255.27 215.573 255.156 215.59 255.033C215.608 254.897 215.572 254.76 215.49 254.651C215.408 254.541 215.287 254.468 215.151 254.448C204.607 252.738 194.739 248.148 186.639 241.184C185.038 239.837 183.995 237.942 183.715 235.868C183.435 233.794 183.938 231.69 185.125 229.967C185.168 229.911 185.2 229.847 185.217 229.778C185.235 229.709 185.239 229.638 185.228 229.568C185.217 229.498 185.193 229.431 185.155 229.371C185.118 229.31 185.068 229.259 185.01 229.218C184.952 229.178 184.886 229.15 184.817 229.135C184.747 229.121 184.676 229.121 184.606 229.136C184.537 229.15 184.471 229.178 184.413 229.219C184.355 229.259 184.306 229.311 184.268 229.372C182.937 231.309 182.374 233.673 182.689 236.003C183.003 238.333 184.173 240.462 185.971 241.978C194.213 249.071 204.259 253.742 214.995 255.471L215.078 255.482Z" fill="black"/>
<path d="M348.47 265.317C348.47 265.317 327.707 241.118 305.252 231.029H186.325L230.253 265.693L348.47 265.317Z" fill="#12B76A"/>
<path d="M256.518 265.319H334.504V267.585H256.518V265.319Z" fill="#263238"/>
<path d="M258.135 260.786L253.958 256.608C253.018 255.67 251.829 255.021 250.532 254.739L218.981 247.866C217.872 247.624 216.72 247.66 215.628 247.971L213.936 248.441C212.81 248.758 211.782 249.355 210.948 250.177C210.115 250.998 209.503 252.017 209.169 253.139C208.836 254.261 208.791 255.449 209.04 256.592C209.29 257.736 209.824 258.797 210.594 259.679L217.383 267.439C218.553 268.774 220.19 269.611 221.957 269.778L252.59 272.556C253.601 272.653 254.622 272.525 255.579 272.182C256.536 271.839 257.405 271.289 258.125 270.572C259.42 269.274 260.149 267.515 260.151 265.681C260.153 263.847 259.428 262.087 258.135 260.786Z" fill="white"/>
<path d="M332.29 263.003L335.747 256.538C336.234 255.633 336.955 254.875 337.836 254.345C338.672 253.843 339.624 253.565 340.599 253.538C341.574 253.511 342.539 253.735 343.403 254.188L346.024 255.567C347.312 256.248 348.29 257.395 348.761 258.773L350.358 263.505C350.624 264.283 350.718 265.111 350.633 265.929C350.548 266.748 350.287 267.539 349.867 268.247C349.447 268.954 348.878 269.563 348.2 270.03C347.523 270.497 346.752 270.811 345.941 270.951L338.724 272.194C337.547 272.398 336.335 272.226 335.261 271.703C334.187 271.18 333.305 270.332 332.739 269.28L332.259 268.392C331.817 267.562 331.588 266.635 331.594 265.694C331.599 264.753 331.838 263.828 332.29 263.003Z" fill="white"/>
<path opacity="0.5" d="M162.037 232.418H52.082C51.1498 232.419 50.2305 232.201 49.3975 231.783C48.5645 231.365 47.841 230.757 47.2847 230.009C46.7285 229.261 46.3551 228.393 46.1943 227.475C46.0335 226.557 46.0898 225.614 46.3587 224.721C48.8653 216.366 53.6695 203.3 60.8864 196.637C61.6886 195.903 62.6733 195.398 63.7376 195.175C76.6987 192.428 97.5346 190.6 112.992 189.535C119.998 189.056 127.025 190.099 133.589 192.595C140.154 195.09 146.1 198.977 151.019 203.99C156.9 209.931 162.211 216.41 166.883 223.343C167.469 224.221 167.805 225.242 167.856 226.296C167.908 227.35 167.672 228.399 167.175 229.33C166.678 230.261 165.938 231.04 165.033 231.584C164.128 232.128 163.093 232.416 162.037 232.418Z" fill="#263238"/>
<path d="M233.132 298.218C233.132 301.643 236.641 304.432 240.965 304.432C245.289 304.432 248.798 301.643 248.798 298.218C248.798 294.792 245.299 292.014 240.965 292.014C236.63 292.014 233.132 294.792 233.132 298.218Z" fill="#263238"/>
<path d="M296.236 260.576C293.667 260.576 292.413 263.208 293.437 266.446C294.46 269.684 297.364 272.326 299.944 272.326C302.523 272.326 303.766 269.694 302.743 266.446C301.719 263.198 298.805 260.576 296.236 260.576Z" fill="#263238"/>
<path d="M348.949 298.218C348.949 301.643 349.993 304.432 351.152 304.432C352.312 304.432 353.366 301.643 353.366 298.218C353.366 294.792 352.322 292.014 351.152 292.014C349.983 292.014 348.949 294.792 348.949 298.218Z" fill="#263238"/>
<path d="M165.426 231.427V227.907C165.427 226.897 165.203 225.9 164.769 224.987C164.336 224.075 163.705 223.271 162.921 222.633C162.138 221.996 161.222 221.541 160.24 221.303C159.259 221.064 158.237 221.048 157.248 221.254L143.859 224.043C142.33 224.362 140.958 225.197 139.973 226.409C138.988 227.62 138.449 229.134 138.449 230.696V231.427C138.449 233.228 139.164 234.956 140.436 236.231C141.709 237.506 143.436 238.223 145.237 238.226H158.627C160.43 238.226 162.159 237.51 163.434 236.235C164.709 234.959 165.426 233.23 165.426 231.427Z" fill="#263238"/>
<path d="M94.9775 191.002C94.9775 191.002 96.7635 190.824 99.8758 190.553C86.1105 218.752 89.6197 232.423 89.6197 232.423H79.113C79.0085 215.253 94.9775 191.002 94.9775 191.002Z" fill="#263238"/>
<path opacity="0.2" d="M211.07 219.797C211.283 222.013 212.313 224.071 213.96 225.569C215.607 227.067 217.753 227.899 219.979 227.902H274.111C278.058 227.902 279.489 223.494 276.628 220.215C271.464 214.335 265.856 208.86 259.854 203.838C249.661 195.253 237.003 190.794 225.17 191.619L220.7 191.943C218.77 192.093 216.941 192.863 215.485 194.137C214.028 195.411 213.022 197.121 212.616 199.013C211.036 205.821 210.515 212.831 211.07 219.797Z" fill="#12B76A"/>
<path opacity="0.2" d="M88.3692 314.409C88.5077 314.409 88.6405 314.354 88.7385 314.256C88.8364 314.158 88.8914 314.025 88.8914 313.886C88.8914 303.317 83.5023 259.734 82.0923 253.206C80.7241 246.867 80.7241 239.786 82.0923 235.18C82.1311 235.047 82.1155 234.904 82.0489 234.783C81.9823 234.661 81.8702 234.571 81.7372 234.532C81.6043 234.496 81.4626 234.513 81.3419 234.579C81.2212 234.646 81.1308 234.756 81.0897 234.887C79.6797 239.65 79.6797 246.929 81.0897 253.426C82.4996 259.922 87.8679 303.359 87.8679 313.886C87.8678 314.021 87.9199 314.151 88.0134 314.248C88.1068 314.346 88.2344 314.403 88.3692 314.409Z" fill="black"/>
<path opacity="0.2" d="M89.7538 253.759H102.485C102.727 253.767 102.967 253.719 103.187 253.62C103.407 253.52 103.601 253.371 103.755 253.184C103.908 252.998 104.017 252.778 104.072 252.543C104.127 252.307 104.127 252.063 104.073 251.827L103.811 250.355C103.706 249.825 103.425 249.346 103.014 248.995C102.603 248.644 102.085 248.443 101.545 248.422H88.8138C88.5723 248.415 88.3322 248.462 88.112 248.562C87.8919 248.662 87.6976 248.811 87.5442 248.998C87.3907 249.184 87.2823 249.404 87.2272 249.639C87.1721 249.874 87.1718 250.119 87.2263 250.355L87.4874 251.827C87.5928 252.357 87.8738 252.836 88.285 253.187C88.6963 253.538 89.2137 253.739 89.7538 253.759Z" fill="black"/>
<path d="M77.3546 49.2163H78.399C78.3986 46.5572 78.782 43.9119 79.5374 41.3624L78.493 41.0699C77.7225 43.7162 77.339 46.4601 77.3546 49.2163ZM81.856 35.8583C84.2482 31.5653 87.742 27.988 91.9773 25.4949C96.2125 23.0019 101.036 21.6834 105.95 21.6753V20.6309C100.849 20.6359 95.8414 22.0037 91.4456 24.5927C87.0499 27.1817 83.4255 30.8979 80.9473 35.357L81.856 35.8583Z" fill="#12B76A"/>
<path d="M105.953 24.2855C112.563 24.2883 118.901 26.9161 123.574 31.591C128.247 36.266 130.872 42.6055 130.872 49.2155C130.872 73.2369 105.953 89.6968 105.953 89.6968C105.953 89.6968 81.0123 73.2264 81.0123 49.2155C81.0151 42.6027 83.644 36.2617 88.3209 31.5867C92.9979 26.9117 99.34 24.2855 105.953 24.2855Z" fill="#12B76A"/>
<path d="M104.497 49.1029V36.9324L115.707 53.2665H107.38V65.4369L96.1699 49.1029H104.497Z" fill="white"/>
</svg>
