<svg width="400" height="120" viewBox="0 0 400 120" fill="none" xmlns="http://www.w3.org/2000/svg">
<path d="M273.885 62.6172H308.655V63.2625C306.645 64.123 305.282 65.4137 304.564 67.1346C303.847 68.7838 304.17 71.0783 305.533 74.0182L315.652 94.9918L325.663 75.0938C327.098 72.2973 327.17 70.0027 325.878 68.2101C324.586 66.4175 322.433 64.7683 319.419 63.2625V62.6172H338.365V63.2625C335.925 64.2664 333.915 65.5571 332.337 67.1346C330.83 68.7121 329.574 70.5764 328.569 72.7275L305.103 119.837H304.134L278.622 67.8875C277.545 65.808 275.967 64.2664 273.885 63.2625V62.6172Z" fill="white"/>
<path d="M353.605 90.5747L367.599 85.3044V81.4324C367.599 79.568 367.419 77.8113 367.061 76.1621C366.774 74.5129 366.199 73.0788 365.338 71.8598C364.477 70.6408 363.293 69.6728 361.786 68.9558C360.279 68.2387 358.341 67.8802 355.973 67.8802C353.892 67.8802 351.919 68.2746 350.053 69.0633C348.259 69.8521 346.644 70.9276 345.209 72.29C343.845 73.6524 342.769 75.2299 341.979 77.0225C341.19 78.8151 340.795 80.7512 340.795 82.8306H339.934C339.934 79.819 340.544 76.915 341.764 74.1185C343.056 71.322 344.814 68.8482 347.039 66.6971C349.263 64.5459 351.883 62.825 354.897 61.5343C357.983 60.2437 361.32 59.5983 364.908 59.5983C369.142 59.5983 372.838 60.2437 375.995 61.5343C379.153 62.825 381.772 64.6176 383.853 66.9122C385.934 69.135 387.477 71.824 388.482 74.979C389.487 78.1339 389.989 81.5399 389.989 85.1968V104.234C389.989 105.955 390.097 107.389 390.312 108.537C390.599 109.612 390.958 110.473 391.388 111.118C391.819 111.763 392.285 112.194 392.788 112.409C393.29 112.624 393.792 112.731 394.295 112.731C395.084 112.731 395.909 112.552 396.771 112.194C397.704 111.763 398.601 110.867 399.462 109.505L400 110.042C397.919 113.269 395.622 115.707 393.111 117.356C390.671 119.006 387.549 119.83 383.746 119.83C382.31 119.83 380.839 119.651 379.332 119.292C377.825 119.006 376.354 118.504 374.919 117.787C373.555 116.998 372.263 116.03 371.043 114.883C369.895 113.735 368.891 112.337 368.029 110.688C365.518 113.699 362.719 115.994 359.633 117.571C356.619 119.077 353.246 119.83 349.514 119.83C345.424 119.83 342.087 118.755 339.504 116.603C336.992 114.452 335.736 111.584 335.736 107.999C335.736 106.278 336.023 104.665 336.597 103.159C337.171 101.581 338.14 100.076 339.504 98.6414C340.867 97.2074 342.697 95.845 344.993 94.5543C347.29 93.1919 350.16 91.8654 353.605 90.5747ZM361.463 112.624C362.468 112.624 363.472 112.373 364.477 111.871C365.554 111.369 366.594 110.724 367.599 109.935V86.7026L366.63 87.2404C364.334 88.3877 362.432 89.6425 360.925 91.0049C359.418 92.2956 358.198 93.658 357.265 95.0921C356.404 96.4545 355.794 97.8527 355.435 99.2868C355.076 100.649 354.897 102.012 354.897 103.374C354.897 104.378 355.004 105.453 355.22 106.601C355.435 107.676 355.794 108.68 356.296 109.612C356.798 110.473 357.444 111.19 358.234 111.763C359.095 112.337 360.171 112.624 361.463 112.624Z" fill="white"/>
<path d="M23.4901 54.4574H0L44.5432 119.829L56.3524 102.69L23.4901 54.4574Z" fill="white"/>
<path d="M71.2854 40.62V0.162598L33.9915 54.4606H61.6955V94.918L98.9894 40.62H71.2854Z" fill="white"/>
<path fill-rule="evenodd" clip-rule="evenodd" d="M238.834 119.177V119.822H269.19V119.177C267.826 118.603 266.857 117.313 266.283 115.305C265.709 113.297 265.422 111.289 265.422 109.282V62.6172H264.884L236.896 70.4689V71.1142C238.906 72.7634 240.341 74.4485 241.202 76.1694C242.135 77.8186 242.601 79.898 242.601 82.4077V109.282C242.601 111.289 242.314 113.297 241.74 115.305C241.166 117.313 240.197 118.603 238.834 119.177Z" fill="white"/>
<path d="M254.119 59.1786C252.397 59.1786 250.746 58.8559 249.168 58.2105C247.661 57.4935 246.333 56.5613 245.185 55.4141C244.037 54.1951 243.104 52.8327 242.386 51.3269C241.74 49.7494 241.417 48.0644 241.417 46.2717C241.417 44.5508 241.74 42.9375 242.386 41.4317C243.104 39.8542 244.037 38.4918 245.185 37.3445C246.333 36.1973 247.661 35.3009 249.168 34.6556C250.746 33.9386 252.397 33.58 254.119 33.58C255.842 33.58 257.456 33.9386 258.963 34.6556C260.542 35.3009 261.87 36.1973 262.946 37.3445C264.094 38.4918 264.991 39.8542 265.637 41.4317C266.355 42.9375 266.714 44.5508 266.714 46.2717C266.714 48.0644 266.355 49.7494 265.637 51.3269C264.991 52.8327 264.094 54.1951 262.946 55.4141C261.87 56.5613 260.542 57.4935 258.963 58.2105C257.456 58.8559 255.842 59.1786 254.119 59.1786Z" fill="white"/>
<path d="M232.365 105.848C230.068 110.796 227.341 114.381 224.184 116.604C221.098 118.755 217.043 119.83 212.02 119.83C206.638 119.83 202.475 118.109 199.533 114.668C196.663 111.226 195.227 106.027 195.227 99.0719V62.9328H187.8V62.2875L217.51 45.4011H218.048V61.6421H231.396V62.9328H218.048V100.255C218.048 102.334 218.227 104.055 218.586 105.418C218.945 106.708 219.412 107.712 219.986 108.429C220.632 109.146 221.313 109.648 222.031 109.935C222.82 110.15 223.61 110.258 224.399 110.258C226.121 110.258 227.521 109.72 228.597 108.644C229.746 107.497 230.822 106.386 231.827 105.31L232.365 105.848Z" fill="white"/>
<path d="M151.784 119.826V119.181C153.147 118.607 154.116 117.317 154.69 115.309C155.264 113.301 155.551 111.293 155.551 109.286V52.6898C155.551 50.1801 155.085 48.0649 154.152 46.344C153.291 44.6231 151.819 42.9738 149.738 41.3963V40.6435L177.726 32.7918H178.264V109.286C178.264 111.293 178.551 113.301 179.125 115.309C179.699 117.317 180.668 118.607 182.032 119.181V119.826H151.784Z" fill="white"/>
<path fill-rule="evenodd" clip-rule="evenodd" d="M84.9041 91.1163C84.9041 87.5057 85.62 83.9974 87.0518 80.5912C88.5517 77.1851 90.5971 74.1536 93.1879 71.4968C95.7787 68.84 98.8808 66.6941 102.494 65.0592C106.176 63.4242 110.199 62.6067 114.562 62.6067C119.198 62.6067 123.323 63.3901 126.936 64.957C130.618 66.4557 133.72 68.5334 136.243 71.1902C138.766 73.7789 140.709 76.8104 142.072 80.2847C143.436 83.6908 144.118 87.3354 144.118 91.2184C144.118 94.8971 143.402 98.4736 141.97 101.948C140.538 105.354 138.527 108.385 135.936 111.042C133.345 113.699 130.243 115.845 126.63 117.48C123.016 119.047 118.994 119.83 114.562 119.83C109.926 119.83 105.767 119.081 102.085 117.582C98.4036 116.015 95.2673 113.938 92.6765 111.349C90.1539 108.76 88.2108 105.729 86.8472 102.254C85.5518 98.712 84.9041 94.9993 84.9041 91.1163ZM117.63 117.173C116.812 118.059 115.789 118.502 114.562 118.502C113.335 118.502 112.278 118.059 111.392 117.173C110.574 116.22 109.892 114.687 109.346 112.575C108.869 110.395 108.494 107.568 108.221 104.094C108.017 100.551 107.915 96.2255 107.915 91.1163C107.915 86.007 108.051 81.7153 108.324 78.241C108.596 74.7667 108.971 71.9737 109.449 69.8618C109.994 67.75 110.676 66.2513 111.494 65.3657C112.38 64.412 113.403 63.9351 114.562 63.9351C115.789 63.9351 116.812 64.412 117.63 65.3657C118.448 66.2513 119.096 67.75 119.573 69.8618C120.119 71.9737 120.494 74.7667 120.698 78.241C120.971 81.7153 121.107 86.007 121.107 91.1163C121.107 96.2255 121.005 100.551 120.8 104.094C120.596 107.568 120.221 110.395 119.675 112.575C119.198 114.687 118.516 116.22 117.63 117.173Z" fill="white"/>
</svg>
