<svg width="391" height="281" viewBox="0 0 391 281" fill="none" xmlns="http://www.w3.org/2000/svg">
<path d="M390.062 244.911H0.0625V245.106H390.062V244.911Z" fill="#EBEBEB"/>
<path d="M107.435 250.235H81.6016V250.43H107.435V250.235Z" fill="#EBEBEB"/>
<path d="M165.34 257.396H133.555V257.591H165.34V257.396Z" fill="#EBEBEB"/>
<path d="M80.819 254.949H40.9766V255.144H80.819V254.949Z" fill="#EBEBEB"/>
<path d="M350.985 251.549H278.336V251.744H350.985V251.549Z" fill="#EBEBEB"/>
<path d="M271.391 251.549H266.453V251.744H271.391V251.549Z" fill="#EBEBEB"/>
<path d="M249.228 254.847H216.289V255.042H249.228V254.847Z" fill="#EBEBEB"/>
<path d="M150.41 244.912H137.867V56.2021H144.887L150.41 244.912Z" fill="#E6E6E6"/>
<path d="M143.744 62.7138H131.974C130.253 62.7076 128.604 62.0195 127.386 60.7997C126.169 59.5798 125.483 57.9271 125.477 56.2019C125.483 54.4768 126.169 52.8241 127.386 51.6042C128.604 50.3844 130.253 49.6963 131.974 49.6901H143.744C145.465 49.6963 147.115 50.3844 148.332 51.6042C149.549 52.8241 150.235 54.4768 150.242 56.2019C150.235 57.9271 149.549 59.5798 148.332 60.7997C147.115 62.0195 145.465 62.7076 143.744 62.7138Z" fill="#E6E6E6"/>
<path d="M130.763 63.2837C134.218 63.2837 137.019 60.1548 137.019 56.2951C137.019 52.4353 134.218 49.3064 130.763 49.3064C127.309 49.3064 124.508 52.4353 124.508 56.2951C124.508 60.1548 127.309 63.2837 130.763 63.2837Z" fill="#F5F5F5"/>
<path d="M130.767 56.2958L77.9062 2.3017L108.927 49.354L130.767 56.2958Z" fill="#F5F5F5"/>
<path d="M130.764 56.2963L110.531 129.169L135.678 78.7164L130.764 56.2963Z" fill="#F5F5F5"/>
<path d="M130.766 56.2952L203.852 37.4164L147.676 40.817L130.766 56.2952Z" fill="#F5F5F5"/>
<path d="M260.092 244.912H249.531V70.1949H255.444L260.092 244.912Z" fill="#E6E6E6"/>
<path d="M254.483 75.6751H244.577C243.129 75.6751 241.74 75.0985 240.716 74.0723C239.692 73.0461 239.117 71.6542 239.117 70.2029C239.117 68.7517 239.692 67.3598 240.716 66.3336C241.74 65.3074 243.129 64.7308 244.577 64.7308H254.483C255.931 64.7308 257.32 65.3074 258.344 66.3336C259.368 67.3598 259.943 68.7517 259.943 70.2029C259.943 71.6542 259.368 73.0461 258.344 74.0723C257.32 75.0985 255.931 75.6751 254.483 75.6751Z" fill="#E6E6E6"/>
<path d="M243.554 76.1515C246.462 76.1515 248.819 73.5195 248.819 70.2728C248.819 67.0262 246.462 64.3942 243.554 64.3942C240.646 64.3942 238.289 67.0262 238.289 70.2728C238.289 73.5195 240.646 76.1515 243.554 76.1515Z" fill="#F5F5F5"/>
<path d="M243.553 70.2736L270.018 12.3943L242.438 50.9805L243.553 70.2736Z" fill="#F5F5F5"/>
<path d="M243.555 70.2731L180.312 76.2377L227.448 80.889L243.555 70.2731Z" fill="#F5F5F5"/>
<path d="M243.555 70.2731L280.339 122.18L260.785 78.9503L243.555 70.2731Z" fill="#F5F5F5"/>
<path d="M213.049 212.548C213.049 212.548 175.079 193.645 214.906 171.03C254.733 148.414 262.969 188.314 262.969 188.314C262.969 188.314 269.342 151.322 302.274 169.685C327.678 183.85 322.554 201.423 318.911 208.717C322.811 203.362 332.592 194.716 350.891 205.872C375.718 221.045 347.475 244.903 347.475 244.903H197.52C178.402 214.611 213.049 212.548 213.049 212.548Z" fill="#E6E6E6"/>
<path d="M208.318 202.643C208.318 202.643 255.376 177.979 205.978 148.446C156.581 118.912 146.418 171.03 146.418 171.03C146.418 171.03 138.516 122.734 97.7066 146.71C66.218 165.206 72.5516 188.142 77.0834 197.663C72.2552 190.659 60.1184 179.386 37.4984 193.958C6.71178 213.767 41.7104 244.911 41.7104 244.911H227.538C251.218 205.355 208.318 202.643 208.318 202.643Z" fill="#F0F0F0"/>
<path d="M94.9151 61.7915C92.7935 57.5076 88.6751 54.4589 84.4475 54.4589C83.2256 54.4396 82.0168 54.7134 80.9219 55.2573C79.8269 55.8012 78.8776 56.5996 78.1529 57.5858C76.8616 56.4762 75.228 55.8467 73.5275 55.8035C70.6493 55.8035 68.5277 57.8672 68.0675 60.7753C66.7402 60.1205 65.2939 59.7428 63.8165 59.6652C60.9383 59.5323 58.6607 60.7206 57.4907 62.6436C56.9514 62.3174 56.3412 62.1269 55.7123 62.0886C55.3538 62.0287 54.9861 62.0601 54.6428 62.1799C54.2996 62.2997 53.9919 62.504 53.7481 62.7741C53.5042 63.0442 53.332 63.3713 53.2473 63.7256C53.1625 64.0798 53.168 64.4496 53.2631 64.8012L53.3333 65.0826H100.016C100.126 63.5582 96.9743 61.8697 94.9151 61.7915Z" fill="#E6E6E6"/>
<path d="M338.583 47.3761C336.462 43.0922 332.343 40.0434 328.123 40.0434C326.9 40.0223 325.689 40.2951 324.593 40.8392C323.496 41.3832 322.546 42.1826 321.821 43.1704C320.527 42.0663 318.894 41.44 317.196 41.3958C314.317 41.3958 312.196 43.4518 311.697 46.3676C310.37 45.7116 308.923 45.3339 307.446 45.2576C304.567 45.1247 302.298 46.3051 301.12 48.236C300.58 47.9097 299.97 47.7193 299.341 47.6809C298.99 47.6293 298.632 47.6651 298.298 47.7852C297.964 47.9053 297.665 48.1059 297.427 48.3694C297.189 48.6328 297.019 48.9511 296.932 49.2959C296.846 49.6408 296.845 50.0016 296.931 50.3466L297.001 50.6359H343.684C343.825 49.1662 340.674 47.4464 338.583 47.3761Z" fill="#F5F5F5"/>
<path d="M224.047 107.374C223.824 107.35 223.6 107.337 223.376 107.335C221.301 104.81 218.696 103.192 216.262 103.192C215.442 103.183 214.634 103.387 213.916 103.784C213.199 104.181 212.596 104.758 212.167 105.459C208.384 100.55 203.493 97.36 198.907 97.36C195.218 97.36 192.41 99.4394 190.842 102.832C188.705 100.901 186.31 99.7522 184.025 99.7522C180.016 99.7522 177.519 103.317 177.473 108.351C175.594 107.249 173.489 106.588 171.318 106.42C167.294 106.194 164.392 108.25 163.191 111.588C162.427 111.038 161.53 110.706 160.593 110.626C158.394 110.501 157.169 112.346 157.715 114.808H234.062C233.128 112.841 231.726 111.135 229.98 109.838C228.233 108.542 226.196 107.696 224.047 107.374Z" fill="#F5F5F5"/>
<path d="M245.473 5.21694H245.137C244.727 4.63676 244.197 4.1516 243.583 3.79423C242.97 3.43686 242.287 3.21559 241.581 3.14536C241.17 3.13397 240.763 3.2313 240.401 3.42755C240.04 3.62379 239.736 3.91203 239.521 4.26323C237.626 1.8086 235.185 0.21387 232.891 0.21387C232.025 0.212859 231.179 0.472315 230.461 0.958688C229.743 1.44506 229.188 2.13599 228.867 2.94211C227.958 2.02252 226.746 1.46662 225.458 1.37865C223.446 1.37865 222.205 3.161 222.182 5.67817C221.244 5.12675 220.193 4.79783 219.109 4.71664C218.24 4.61944 217.363 4.82205 216.625 5.29102C215.886 5.75999 215.329 6.46733 215.045 7.29635C214.662 7.02272 214.211 6.85796 213.742 6.81949C212.643 6.75696 212.034 7.6794 212.307 8.90671H250.488C250.017 7.92742 249.314 7.07892 248.439 6.43561C247.565 5.79231 246.546 5.37385 245.473 5.21694Z" fill="#E6E6E6"/>
<path d="M195.062 280.214C278.587 280.214 346.297 276.252 346.297 271.365C346.297 266.477 278.587 262.516 195.062 262.516C111.538 262.516 43.8281 266.477 43.8281 271.365C43.8281 276.252 111.538 280.214 195.062 280.214Z" fill="#F5F5F5"/>
<path d="M209.885 208.928H185.861C175.557 208.928 167.211 222.475 167.211 239.189C167.211 255.902 175.557 269.449 185.861 269.449H209.885C220.189 269.449 228.542 255.902 228.542 239.189C228.542 222.475 220.173 208.928 209.885 208.928Z" fill="#12B76A"/>
<path opacity="0.2" d="M209.885 208.928H185.861C175.557 208.928 167.211 222.475 167.211 239.189C167.211 255.902 175.557 269.449 185.861 269.449H209.885C220.189 269.449 228.542 255.902 228.542 239.189C228.542 222.475 220.173 208.928 209.885 208.928Z" fill="black"/>
<path d="M101.424 208.928H77.3998C67.096 208.928 58.75 222.475 58.75 239.189C58.75 255.902 67.096 269.449 77.3998 269.449H101.424C111.728 269.449 120.081 255.902 120.081 239.189C120.081 222.475 111.728 208.928 101.424 208.928Z" fill="#12B76A"/>
<path opacity="0.2" d="M101.424 208.928H77.3998C67.096 208.928 58.75 222.475 58.75 239.189C58.75 255.902 67.096 269.449 77.3998 269.449H101.424C111.728 269.449 120.081 255.902 120.081 239.189C120.081 222.475 111.728 208.928 101.424 208.928Z" fill="black"/>
<path d="M330.711 185.968L336.171 190.659C337.442 191.753 338.387 193.176 338.905 194.773C339.422 196.369 339.491 198.078 339.104 199.711L337.856 204.988L330.711 185.968Z" fill="#12B76A"/>
<path d="M340.646 216.667C339.701 206.344 337.005 196.258 332.674 186.844L330.787 182.787H285.32L308.9 250.797C317.195 248.721 324.88 244.702 331.325 239.071L331.871 238.602C334.96 235.902 337.367 232.506 338.892 228.693C340.418 224.88 341.019 220.758 340.646 216.667Z" fill="#12B76A"/>
<path opacity="0.5" d="M340.646 216.667C339.701 206.344 337.005 196.258 332.674 186.844L330.787 182.787H285.32L308.9 250.797C317.195 248.721 324.88 244.702 331.325 239.071L331.871 238.602C334.96 235.902 337.367 232.506 338.892 228.693C340.418 224.88 341.019 220.758 340.646 216.667Z" fill="white"/>
<path d="M280.267 269.449C269.963 269.449 261.609 255.902 261.609 239.189C261.609 222.475 269.963 208.928 280.267 208.928H304.205V269.449H280.267Z" fill="#12B76A"/>
<path d="M304.29 269.449C314.595 269.449 322.948 255.901 322.948 239.189C322.948 222.476 314.595 208.928 304.29 208.928C293.986 208.928 285.633 222.476 285.633 239.189C285.633 255.901 293.986 269.449 304.29 269.449Z" fill="#12B76A"/>
<path opacity="0.2" d="M304.292 258.325C311.52 258.325 317.38 249.757 317.38 239.188C317.38 228.619 311.52 220.051 304.292 220.051C297.063 220.051 291.203 228.619 291.203 239.188C291.203 249.757 297.063 258.325 304.292 258.325Z" fill="black"/>
<path d="M144.084 250.797L99.2188 178.635C99.2188 178.635 134.717 142.676 212.249 142.676C279.375 142.676 319.577 164.892 330.809 182.794L304.211 208.935C278.471 208.935 278.611 236.296 275.078 247.826C274.809 248.694 274.269 249.453 273.537 249.989C272.805 250.526 271.921 250.812 271.014 250.804H144.084" fill="#12B76A"/>
<path opacity="0.5" d="M144.084 250.797L99.2188 178.635C99.2188 178.635 134.717 142.676 212.249 142.676C279.375 142.676 319.577 164.892 330.809 182.794L304.211 208.935C278.471 208.935 278.611 236.296 275.078 247.826C274.809 248.694 274.269 249.453 273.537 249.989C272.805 250.526 271.921 250.812 271.014 250.804H144.084" fill="white"/>
<path d="M171.814 269.449C161.51 269.449 153.156 255.902 153.156 239.189C153.156 222.475 161.518 208.928 171.814 208.928H195.752V269.449H171.814Z" fill="#12B76A"/>
<path d="M195.845 269.449C206.149 269.449 214.503 255.901 214.503 239.189C214.503 222.476 206.149 208.928 195.845 208.928C185.541 208.928 177.188 222.476 177.188 239.189C177.188 255.901 185.541 269.449 195.845 269.449Z" fill="#12B76A"/>
<path opacity="0.2" d="M195.846 258.325C203.075 258.325 208.935 249.757 208.935 239.188C208.935 228.619 203.075 220.051 195.846 220.051C188.618 220.051 182.758 228.619 182.758 239.188C182.758 249.757 188.618 258.325 195.846 258.325Z" fill="black"/>
<path d="M162.998 244.841C165.284 231.317 178.739 208.928 195.758 208.928L212.224 178.636H99.2176C92.0104 178.636 58.3144 190.839 46.045 203.135C37.465 211.734 36.568 220.404 35.554 242.449C35.3512 246.944 39.4774 250.852 44.4382 250.852C86.137 250.852 136.603 251.016 154.972 251.071C159.028 251.048 162.39 248.46 162.998 244.841Z" fill="#12B76A"/>
<path opacity="0.5" d="M162.998 244.841C165.284 231.317 178.739 208.928 195.758 208.928L212.224 178.636H99.2176C92.0104 178.636 58.3144 190.839 46.045 203.135C37.465 211.734 36.568 220.404 35.554 242.449C35.3512 246.944 39.4774 250.852 44.4382 250.852C86.137 250.852 136.603 251.016 154.972 251.071C159.028 251.048 162.39 248.46 162.998 244.841Z" fill="white"/>
<path opacity="0.3" d="M212.225 142.669C135.169 142.669 100.007 178.081 99.2109 178.628H177.164C177.164 178.628 210.704 149.587 232.911 143.403C226.343 142.924 219.448 142.679 212.225 142.669Z" fill="#12B76A"/>
<path opacity="0.7" d="M115.83 209.545C126.524 205.48 158.824 194.075 167.63 197.037C176.436 200 155.111 210.585 149.737 211.992C144.363 213.399 140.845 210.577 132.803 214.478C124.761 218.379 102.875 214.454 115.83 209.545Z" fill="#12B76A"/>
<path opacity="0.2" d="M248.303 251.204C248.22 251.203 248.139 251.179 248.069 251.133C247.98 251.072 247.918 250.977 247.898 250.87C247.878 250.764 247.9 250.653 247.96 250.563C248.124 250.328 263.927 226.478 263.927 178.644C263.927 178.534 263.97 178.428 264.048 178.351C264.125 178.273 264.23 178.229 264.34 178.229C264.394 178.229 264.447 178.24 264.497 178.261C264.547 178.282 264.592 178.312 264.63 178.351C264.667 178.39 264.697 178.435 264.717 178.486C264.737 178.536 264.747 178.589 264.746 178.644C264.746 226.767 248.802 250.797 248.639 251.032C248.601 251.086 248.551 251.13 248.492 251.16C248.434 251.19 248.369 251.205 248.303 251.204Z" fill="#12B76A"/>
<path opacity="0.2" d="M77.0784 214.284H76.9926L55.5192 209.328C55.461 209.323 55.4046 209.305 55.3539 209.276C55.3031 209.247 55.2592 209.208 55.225 209.16C55.1909 209.113 55.1674 209.059 55.1561 209.001C55.1448 208.944 55.146 208.885 55.1596 208.828C55.1733 208.771 55.199 208.718 55.235 208.672C55.2711 208.626 55.3166 208.588 55.3685 208.561C55.4204 208.534 55.4775 208.519 55.5358 208.516C55.5941 208.514 55.6523 208.524 55.7064 208.546L77.1018 213.471L112.49 209.421C112.548 209.399 112.61 209.39 112.672 209.395C112.733 209.4 112.793 209.42 112.846 209.451C112.899 209.483 112.944 209.527 112.978 209.579C113.012 209.631 113.033 209.69 113.04 209.752C113.048 209.813 113.041 209.876 113.02 209.934C113 209.993 112.967 210.046 112.922 210.089C112.878 210.133 112.825 210.166 112.766 210.186C112.708 210.205 112.645 210.211 112.584 210.203L77.1252 214.284H77.0784Z" fill="#12B76A"/>
<path opacity="0.2" d="M304.207 209.342C304.151 209.343 304.096 209.333 304.045 209.311C303.994 209.29 303.948 209.258 303.91 209.217C303.872 209.179 303.841 209.133 303.821 209.083C303.8 209.033 303.789 208.979 303.789 208.924C303.789 208.87 303.8 208.816 303.821 208.765C303.841 208.715 303.872 208.669 303.91 208.631C311.406 201.259 315.408 184.046 315.408 174.454C315.406 174.4 315.416 174.346 315.436 174.296C315.456 174.246 315.486 174.2 315.524 174.161C315.561 174.123 315.606 174.092 315.656 174.071C315.706 174.05 315.759 174.039 315.813 174.039C315.923 174.039 316.028 174.083 316.105 174.161C316.183 174.238 316.227 174.344 316.227 174.454C316.227 184.194 312.147 201.697 304.488 209.225C304.411 209.297 304.311 209.339 304.207 209.342Z" fill="#12B76A"/>
<path d="M243.787 186.86H254.48C254.879 186.858 255.261 186.698 255.543 186.416C255.825 186.133 255.984 185.751 255.986 185.351C255.984 184.952 255.825 184.569 255.543 184.287C255.261 184.004 254.879 183.845 254.48 183.843H243.787C243.388 183.845 243.006 184.004 242.724 184.287C242.443 184.569 242.283 184.952 242.281 185.351C242.283 185.751 242.443 186.133 242.724 186.416C243.006 186.698 243.388 186.858 243.787 186.86Z" fill="#12B76A"/>
<path d="M290.701 186.86H301.387C301.787 186.86 302.17 186.701 302.454 186.419C302.738 186.136 302.898 185.752 302.9 185.351C302.898 184.95 302.738 184.567 302.454 184.284C302.17 184.001 301.787 183.843 301.387 183.843H290.701C290.302 183.845 289.92 184.004 289.639 184.287C289.357 184.569 289.197 184.952 289.195 185.351C289.197 185.751 289.357 186.133 289.639 186.416C289.92 186.698 290.302 186.858 290.701 186.86Z" fill="#12B76A"/>
<path opacity="0.7" d="M54.8507 209.944C52.6511 208.6 49.0397 206.473 44.9525 204.292C42.7162 206.661 40.9247 209.416 39.6641 212.422C41.2812 212.797 42.7881 213.546 44.0633 214.611C49.2737 218.629 63.2435 215.072 54.8507 209.944Z" fill="#12B76A"/>
<path opacity="0.3" d="M190.977 178.636H299.927C305.497 178.637 310.972 177.196 315.823 174.454C315.823 174.454 298.195 158.397 262.698 151.479C248.112 148.633 234.282 147.531 230.031 147.804C219.891 153.136 204.361 164.424 190.977 178.636Z" fill="#12B76A"/>
<path d="M125.645 245.786H48.1601C47.743 245.788 47.3344 245.668 46.9836 245.442C46.6329 245.216 46.3549 244.893 46.1834 244.512C46.0118 244.131 45.954 243.708 46.0169 243.295C46.0798 242.881 46.2607 242.495 46.5377 242.183L48.5423 239.916C48.7465 239.687 48.9966 239.504 49.2761 239.379C49.5557 239.253 49.8585 239.189 50.1648 239.189H123.625C123.93 239.189 124.232 239.254 124.51 239.379C124.788 239.504 125.037 239.687 125.24 239.916L127.244 242.183C127.52 242.494 127.701 242.878 127.764 243.289C127.828 243.7 127.772 244.121 127.604 244.501C127.435 244.881 127.16 245.205 126.813 245.433C126.466 245.661 126.06 245.783 125.645 245.786Z" fill="#12B76A"/>
<path d="M328.836 209.671L323.961 210.609V197.358L328.836 198.297C329.499 198.429 329.998 199.321 329.998 200.384V207.583C330.006 208.639 329.499 209.538 328.836 209.671Z" fill="#12B76A"/>
<path d="M246.608 275.437C242.708 275.437 240.594 274.468 240.594 272.717C240.594 271.224 242.255 270.121 245.679 269.355C250.276 268.494 254.95 268.112 259.626 268.214H322.197C326.004 268.214 328.859 267.104 330.941 264.813C336.581 258.63 335.317 244.7 334.397 234.537C334.085 231.082 333.788 227.814 333.788 225.274C333.843 221.888 334.156 218.511 334.724 215.174C335.309 211.226 335.769 208.138 334.514 206.645C333.687 205.683 331.963 205.222 329.233 205.222V202.744C332.774 202.744 335.044 203.471 336.378 205.027C338.382 207.372 337.844 210.968 337.158 215.533C336.603 218.752 336.295 222.008 336.237 225.274C336.237 227.705 336.526 230.91 336.838 234.31C337.852 245.528 339.116 259.49 332.751 266.486C330.208 269.269 326.651 270.684 322.182 270.684H259.626C249.525 270.684 245.032 271.872 243.542 272.615C244.542 272.878 245.574 272.996 246.608 272.967V275.437Z" fill="#12B76A"/>
<path d="M329.219 199.687V208.286C330.357 208.286 331.448 207.833 332.252 207.027C333.057 206.221 333.509 205.127 333.509 203.987C333.509 202.847 333.057 201.753 332.252 200.947C331.448 200.14 330.357 199.687 329.219 199.687Z" fill="#12B76A"/>
<path d="M292.401 75.6586H259.625V273.132H292.401V75.6586Z" fill="#263238"/>
<path d="M301.406 73.2272H262.438V75.6584H301.406V73.2272Z" fill="#263238"/>
<path opacity="0.4" d="M301.4 73.2272H292.406V75.6584H301.4V73.2272Z" fill="black"/>
<path d="M276.308 94.2937V85.5088L268.234 97.299H274.232V106.084L282.305 94.2937H276.308Z" fill="white"/>
<path opacity="0.5" d="M280.884 205.317C283.574 202.621 283.574 198.251 280.884 195.555C278.194 192.859 273.833 192.859 271.144 195.555C268.454 198.251 268.454 202.621 271.144 205.317C273.833 208.012 278.194 208.012 280.884 205.317Z" fill="#12B76A"/>
<path d="M246.607 275.437C246.281 275.437 245.967 275.307 245.736 275.075C245.505 274.844 245.375 274.529 245.375 274.202C245.375 273.874 245.505 273.56 245.736 273.328C245.967 273.097 246.281 272.967 246.607 272.967C250.578 272.967 253.315 271.982 254.985 269.957C258.822 265.306 256.911 255.3 254.891 244.699C253.549 237.664 252.161 230.386 252.161 223.593C252.161 207.849 260.632 199.171 276.013 199.171C276.184 199.158 276.356 199.18 276.517 199.236C276.679 199.292 276.827 199.381 276.953 199.497C277.079 199.614 277.179 199.755 277.248 199.912C277.316 200.069 277.352 200.239 277.352 200.41C277.352 200.582 277.316 200.752 277.248 200.909C277.179 201.066 277.079 201.207 276.953 201.323C276.827 201.44 276.679 201.529 276.517 201.585C276.356 201.641 276.184 201.663 276.013 201.649C266.256 201.649 254.626 205.456 254.626 223.593C254.626 230.12 255.991 237.281 257.309 244.207C259.446 255.393 261.459 265.955 256.888 271.497C254.719 274.155 251.358 275.437 246.607 275.437Z" fill="#12B76A"/>
<path opacity="0.5" d="M288.32 138.291H263.719V188.119H288.32V138.291Z" fill="#12B76A"/>
<path opacity="0.5" d="M263.711 138.291V188.119L272.525 145.225L263.711 138.291Z" fill="#12B76A"/>
<path d="M283.649 155.09L284.149 152.659H277.433L276.934 155.09H274.336L269.578 178.245H281.551L286.309 155.09H283.649Z" fill="#12B76A"/>
<path opacity="0.4" d="M283.021 163.298L280.572 175.227C280.489 175.636 280.268 176.004 279.945 176.268C279.622 176.531 279.218 176.675 278.802 176.674H272.827C272.665 176.675 272.504 176.64 272.357 176.57C272.21 176.501 272.081 176.4 271.978 176.274C271.876 176.148 271.803 176 271.765 175.842C271.727 175.684 271.724 175.519 271.758 175.36L274.207 163.431C274.29 163.022 274.512 162.655 274.835 162.391C275.158 162.127 275.562 161.984 275.978 161.985H281.953C282.115 161.984 282.276 162.019 282.422 162.088C282.569 162.157 282.699 162.259 282.801 162.385C282.904 162.511 282.977 162.658 283.015 162.816C283.053 162.974 283.055 163.139 283.021 163.298Z" fill="white"/>
<path opacity="0.4" d="M263.711 138.29L288.312 138.282V145.224H272.525L263.711 138.29Z" fill="#263238"/>
<path d="M292.402 273.131H304.195V75.6581H292.402V273.131Z" fill="#263238"/>
<path opacity="0.4" d="M292.402 273.131H304.195V75.6581H292.402V273.131Z" fill="black"/>
</svg>
