<svg width="616" height="185" viewBox="0 0 616 185" fill="none" xmlns="http://www.w3.org/2000/svg">
<path d="M421.62 96.1965H475.078V97.1887C471.988 98.5116 469.892 100.496 468.788 103.142C467.685 105.678 468.182 109.205 470.278 113.726L485.835 145.972L501.227 115.379C503.434 111.08 503.544 107.552 501.558 104.796C499.572 102.039 496.262 99.5038 491.628 97.1887V96.1965H520.757V97.1887C517.005 98.7321 513.916 100.717 511.489 103.142C509.171 105.567 507.241 108.434 505.696 111.741L469.616 184.173H468.126L428.902 104.3C427.247 101.102 424.819 98.7321 421.62 97.1887V96.1965Z" fill="#363753"/>
<path d="M544.189 139.181L565.704 131.078V125.125C565.704 122.258 565.428 119.557 564.877 117.022C564.435 114.486 563.553 112.281 562.229 110.407C560.904 108.533 559.084 107.045 556.767 105.942C554.45 104.84 551.471 104.288 547.83 104.288C544.63 104.288 541.596 104.895 538.727 106.107C535.969 107.32 533.486 108.974 531.279 111.068C529.183 113.163 527.528 115.589 526.314 118.345C525.1 121.101 524.494 124.077 524.494 127.275H523.17C523.17 122.644 524.107 118.179 525.983 113.88C527.969 109.58 530.672 105.777 534.093 102.469C537.513 99.1619 541.541 96.516 546.175 94.5316C550.919 92.5472 556.05 91.555 561.566 91.555C568.076 91.555 573.759 92.5472 578.613 94.5316C583.468 96.516 587.496 99.2722 590.695 102.8C593.895 106.218 596.267 110.352 597.812 115.203C599.357 120.054 600.129 125.29 600.129 130.913V160.183C600.129 162.829 600.295 165.034 600.626 166.798C601.067 168.451 601.619 169.774 602.281 170.767C602.943 171.759 603.66 172.42 604.432 172.751C605.204 173.082 605.977 173.247 606.749 173.247C607.963 173.247 609.232 172.971 610.556 172.42C611.99 171.759 613.369 170.381 614.693 168.286L615.521 169.113C612.321 174.074 608.79 177.822 604.929 180.358C601.177 182.894 596.378 184.161 590.53 184.161C588.323 184.161 586.061 183.886 583.744 183.335C581.427 182.894 579.165 182.122 576.958 181.019C574.862 179.807 572.876 178.318 571 176.554C569.235 174.79 567.69 172.641 566.366 170.105C562.504 174.735 558.201 178.263 553.457 180.689C548.823 183.004 543.637 184.161 537.899 184.161C531.61 184.161 526.48 182.508 522.508 179.2C518.646 175.893 516.715 171.483 516.715 165.971C516.715 163.325 517.156 160.844 518.039 158.529C518.922 156.104 520.411 153.789 522.508 151.584C524.604 149.379 527.417 147.284 530.948 145.3C534.479 143.205 538.892 141.166 544.189 139.181ZM556.27 173.082C557.815 173.082 559.36 172.696 560.904 171.924C562.56 171.152 564.159 170.16 565.704 168.947V133.228L564.215 134.055C560.684 135.819 557.76 137.748 555.443 139.843C553.126 141.827 551.25 143.922 549.816 146.127C548.492 148.221 547.554 150.371 547.002 152.576C546.45 154.671 546.175 156.765 546.175 158.86C546.175 160.403 546.34 162.057 546.671 163.821C547.002 165.475 547.554 167.018 548.326 168.451C549.099 169.774 550.092 170.877 551.305 171.759C552.629 172.641 554.284 173.082 556.27 173.082Z" fill="#363753"/>
<path d="M36.6369 83.6508H0.520874L69.006 184.16L87.1627 157.808L36.6369 83.6508Z" fill="#363753"/>
<path d="M110.122 62.3757V0.172546L52.7827 83.6558H95.3777V145.859L152.717 62.3757H110.122Z" fill="#12B76A"/>
<path fill-rule="evenodd" clip-rule="evenodd" d="M367.728 183.157V184.149H414.4V183.157C412.304 182.275 410.814 180.291 409.931 177.204C409.049 174.117 408.607 171.03 408.607 167.943V96.1965H407.78L364.749 108.268V109.261C367.838 111.796 370.045 114.387 371.369 117.033C372.803 119.569 373.52 122.766 373.52 126.624V167.943C373.52 171.03 373.079 174.117 372.196 177.204C371.314 180.291 369.824 182.275 367.728 183.157Z" fill="#363753"/>
<path d="M391.229 90.9096C388.581 90.9096 386.044 90.4135 383.616 89.4213C381.299 88.3188 379.258 86.8856 377.493 85.1217C375.727 83.2475 374.293 81.1528 373.189 78.8377C372.196 76.4123 371.7 73.8215 371.7 71.0654C371.7 68.4195 372.196 65.9389 373.189 63.6238C374.293 61.1984 375.727 59.1037 377.493 57.3398C379.258 55.5758 381.299 54.1978 383.616 53.2056C386.044 52.1031 388.581 51.5519 391.229 51.5519C393.877 51.5519 396.36 52.1031 398.677 53.2056C401.104 54.1978 403.146 55.5758 404.801 57.3398C406.566 59.1037 407.945 61.1984 408.938 63.6238C410.042 65.9389 410.593 68.4195 410.593 71.0654C410.593 73.8215 410.042 76.4123 408.938 78.8377C407.945 81.1528 406.566 83.2475 404.801 85.1217C403.146 86.8856 401.104 88.3188 398.677 89.4213C396.36 90.4135 393.877 90.9096 391.229 90.9096Z" fill="#12B76A"/>
<path d="M357.782 162.664C354.251 170.271 350.058 175.783 345.204 179.201C340.459 182.508 334.225 184.162 326.502 184.162C318.226 184.162 311.827 181.516 307.303 176.224C302.89 170.932 300.683 162.939 300.683 152.246V96.6818H289.263V95.6896L334.942 69.7267H335.77V94.6973H356.292V96.6818H335.77V154.065C335.77 157.262 336.046 159.908 336.597 162.002C337.149 163.987 337.866 165.53 338.749 166.633C339.742 167.735 340.79 168.507 341.893 168.948C343.107 169.279 344.321 169.444 345.535 169.444C348.183 169.444 350.334 168.617 351.989 166.963C353.755 165.199 355.41 163.491 356.954 161.837L357.782 162.664Z" fill="#363753"/>
<path d="M233.888 184.155V183.163C235.984 182.281 237.474 180.297 238.357 177.21C239.239 174.123 239.681 171.036 239.681 167.949V80.9331C239.681 77.0745 238.964 73.8223 237.529 71.1764C236.205 68.5305 233.943 65.9948 230.744 63.5694V62.4119L273.775 50.34H274.602V167.949C274.602 171.036 275.043 174.123 275.926 177.21C276.809 180.297 278.298 182.281 280.395 183.163V184.155H233.888Z" fill="#363753"/>
<path fill-rule="evenodd" clip-rule="evenodd" d="M131.061 140.014C131.061 134.463 132.162 129.069 134.363 123.832C136.669 118.595 139.814 113.934 143.797 109.849C147.781 105.764 152.55 102.465 158.106 99.951C163.766 97.4373 169.951 96.1804 176.66 96.1804C183.788 96.1804 190.13 97.3849 195.686 99.7939C201.346 102.098 206.116 105.293 209.994 109.378C213.873 113.358 216.86 118.019 218.957 123.36C221.053 128.597 222.102 134.201 222.102 140.171C222.102 145.827 221.001 151.326 218.8 156.667C216.598 161.904 213.506 166.565 209.523 170.65C205.539 174.735 200.77 178.034 195.214 180.548C189.658 182.957 183.474 184.161 176.66 184.161C169.532 184.161 163.137 183.009 157.477 180.705C151.816 178.296 146.994 175.101 143.011 171.121C139.133 167.141 136.145 162.48 134.048 157.139C132.057 151.692 131.061 145.984 131.061 140.014ZM181.377 180.077C180.119 181.438 178.547 182.119 176.66 182.119C174.773 182.119 173.148 181.438 171.786 180.077C170.528 178.61 169.479 176.254 168.641 173.007C167.907 169.655 167.33 165.308 166.911 159.967C166.597 154.52 166.439 147.869 166.439 140.014C166.439 132.158 166.649 125.56 167.068 120.218C167.488 114.876 168.064 110.582 168.798 107.335C169.637 104.088 170.685 101.784 171.943 100.422C173.306 98.956 174.878 98.2228 176.66 98.2228C178.547 98.2228 180.119 98.956 181.377 100.422C182.635 101.784 183.631 104.088 184.365 107.335C185.203 110.582 185.78 114.876 186.094 120.218C186.513 125.56 186.723 132.158 186.723 140.014C186.723 147.869 186.566 154.52 186.251 159.967C185.937 165.308 185.36 169.655 184.522 173.007C183.788 176.254 182.74 178.61 181.377 180.077Z" fill="#363753"/>
</svg>
